<?xml version="1.0" encoding="UTF-8" standalone="no"?>
<!DOCTYPE svg PUBLIC "-//W3C//DTD SVG 1.1//EN" "http://www.w3.org/Graphics/SVG/1.1/DTD/svg11.dtd">
<svg version="1.1" xmlns="http://www.w3.org/2000/svg" xmlns:xlink="http://www.w3.org/1999/xlink" preserveAspectRatio="xMidYMid meet" viewBox="0 0 640 640" width="640" height="640"><defs><path d="" id="aRz5ocpUN"></path><path d="M643.84 0L341.06 0C353.15 24.41 360.71 39.67 363.73 45.77C373.5 65.5 391.91 79.56 413.52 83.78C426.54 86.33 435.76 88.14 449.89 90.9C467.73 94.39 482.43 106.97 488.64 124.06C494.27 139.59 497.57 148.66 502.3 161.69C511.65 187.45 530.16 208.87 554.3 221.85C575.92 233.47 591.94 241.12 602.37 244.79C616.8 249.86 628.96 264.39 638.84 288.36C640.22 291.72 645.22 290.71 645.2 287.09C645.02 248.81 644.57 153.11 643.84 0Z" id="ecxTGX51"></path></defs><g><g><g><g><use xlink:href="#aRz5ocpUN" opacity="1" fill-opacity="0" stroke="#000000" stroke-width="1" stroke-opacity="1"></use></g></g><g><use xlink:href="#ecxTGX51" opacity="1" fill="#07100e" fill-opacity="1"></use><g><use xlink:href="#ecxTGX51" opacity="1" fill-opacity="0" stroke="#000000" stroke-width="0" stroke-opacity="1"></use></g></g></g></g></svg>