<?xml version="1.0" encoding="UTF-8" standalone="no"?>
<!DOCTYPE svg PUBLIC "-//W3C//DTD SVG 1.1//EN" "http://www.w3.org/Graphics/SVG/1.1/DTD/svg11.dtd">
<svg version="1.1" xmlns="http://www.w3.org/2000/svg" xmlns:xlink="http://www.w3.org/1999/xlink" preserveAspectRatio="xMidYMid meet" viewBox="0 0 640 640" width="640" height="640"><defs><path d="" id="aRz5ocpUN"></path><path d="" id="agp6Luis2"></path><path d="M661.94 0L664.82 312.37C646 307.08 634.25 303.77 629.54 302.45C610.62 297.13 599.21 277.9 603.61 258.74C604.3 255.74 602.04 265.58 603.61 258.74C605.81 249.14 611.75 240.81 620.11 235.6C626.28 231.76 625.97 231.95 630.7 229.01C643.22 221.21 650.6 207.31 650.05 192.58C649.88 187.99 649.46 176.5 648.78 158.13C638.01 152.26 631.28 148.59 628.59 147.12C611.06 137.55 597.82 121.67 591.57 102.69C589.78 97.23 589.55 96.55 586.62 87.63C583.98 79.63 579.21 72.5 572.81 67.02C567.72 62.65 567.47 62.44 563.69 59.2C553.15 50.16 546.25 37.6 544.28 23.86C543.83 20.68 542.69 12.73 540.86 0L661.94 0Z" id="bfvuqT1RI"></path><linearGradient id="gradientb1hKRQHHZ7" gradientUnits="userSpaceOnUse" x1="542.41" y1="-109.35" x2="727.3" y2="508.78"><stop style="stop-color: #50e3c2;stop-opacity: 1" offset="0%"></stop><stop style="stop-color: #10d574;stop-opacity: 1" offset="100%"></stop></linearGradient></defs><g><g><g><g><use xlink:href="#aRz5ocpUN" opacity="1" fill-opacity="0" stroke="#000000" stroke-width="1" stroke-opacity="1"></use></g></g><g><g><use xlink:href="#agp6Luis2" opacity="1" fill-opacity="0" stroke="#000000" stroke-width="0" stroke-opacity="1"></use></g></g><g><use xlink:href="#bfvuqT1RI" opacity="1" fill="url(#gradientb1hKRQHHZ7)"></use><g><use xlink:href="#bfvuqT1RI" opacity="1" fill-opacity="0" stroke="#000000" stroke-width="0" stroke-opacity="1"></use></g></g></g></g></svg>