<?xml version="1.0" encoding="UTF-8" standalone="no"?>
<!DOCTYPE svg PUBLIC "-//W3C//DTD SVG 1.1//EN" "http://www.w3.org/Graphics/SVG/1.1/DTD/svg11.dtd">
<svg version="1.1" xmlns="http://www.w3.org/2000/svg" xmlns:xlink="http://www.w3.org/1999/xlink" preserveAspectRatio="xMidYMid meet" viewBox="0 0 640 640" width="640" height="640"><defs><path d="" id="aRz5ocpUN"></path><path d="M0 640L302.78 640C290.69 615.59 283.13 600.33 280.11 594.23C270.34 574.5 251.93 560.44 230.32 556.22C217.3 553.67 208.08 551.86 193.95 549.1C176.11 545.61 161.41 533.03 155.2 515.94C149.57 500.41 146.27 491.34 141.54 478.31C132.19 452.55 113.68 431.13 89.54 418.15C67.92 406.53 51.9 398.88 41.47 395.21C22.7 388.61 9.12 368.88 0.72 336.02L0 640Z" id="dpd9Fqf56"></path><linearGradient id="gradientag62s9vF2" gradientUnits="userSpaceOnUse" x1="-6.41" y1="347.66" x2="297.51" y2="780.4"><stop style="stop-color: #bc4e9c;stop-opacity: 1" offset="0%"></stop><stop style="stop-color: #f80759;stop-opacity: 1" offset="100%"></stop></linearGradient><path d="" id="agp6Luis2"></path></defs><g><g><g><g><use xlink:href="#aRz5ocpUN" opacity="1" fill-opacity="0" stroke="#000000" stroke-width="1" stroke-opacity="1"></use></g></g><g><use xlink:href="#dpd9Fqf56" opacity="1" fill="url(#gradientag62s9vF2)"></use><g><use xlink:href="#dpd9Fqf56" opacity="1" fill-opacity="0" stroke="#000000" stroke-width="0" stroke-opacity="1"></use></g></g><g><g><use xlink:href="#agp6Luis2" opacity="1" fill-opacity="0" stroke="#000000" stroke-width="0" stroke-opacity="1"></use></g></g></g></g></svg>