<?xml version="1.0" encoding="UTF-8" standalone="no"?>
<!DOCTYPE svg PUBLIC "-//W3C//DTD SVG 1.1//EN" "http://www.w3.org/Graphics/SVG/1.1/DTD/svg11.dtd">
<svg version="1.1" xmlns="http://www.w3.org/2000/svg" xmlns:xlink="http://www.w3.org/1999/xlink" preserveAspectRatio="xMidYMid meet" viewBox="0 0 640 640" width="640" height="640"><defs><path d="M117.04 266.14C117.04 263.37 117.79 261.81 117.88 261.33C118.72 259.3 119.98 258.29 120.21 257.95C121.7 256.61 123.35 256.15 123.7 255.95C125.03 255.52 126.46 255.3 128 255.3C128 255.3 128 255.3 128 255.3C128.84 255.3 129.48 255.44 129.64 255.45C130.17 255.55 130.61 255.67 130.94 255.81L130.94 255.81C130.94 251.72 130.94 249.45 130.94 249C131.37 248.87 132.16 248.75 132.29 248.73C132.91 248.63 133.54 248.58 134.18 248.58C134.18 248.58 134.18 248.58 134.18 248.58C135.1 248.58 135.67 248.69 135.84 248.71C136.58 248.83 136.96 249.16 137.08 249.21C137.58 249.59 137.76 250.14 137.84 250.24C138 250.67 138.09 251.24 138.09 251.94L138.09 251.94C138.09 263.89 138.09 270.53 138.09 271.86C138.09 273.18 137.47 274.23 136.24 275.01C136.24 275.01 136.24 275.01 136.24 275.01C135.02 275.81 133.4 276.28 133.09 276.42C131.8 276.82 130.31 277.03 128.63 277.03C128.63 277.03 128.63 277.03 128.63 277.03C125.9 277.03 124.23 276.35 123.74 276.27C121.57 275.52 120.45 274.3 120.08 274.09C118.59 272.66 118.04 271 117.81 270.66C117.3 269.33 117.04 267.83 117.04 266.14C117.04 266.14 117.04 266.14 117.04 266.14ZM128.97 260.89C126.7 260.89 125.83 262.06 125.48 262.19C124.67 263.06 124.26 264.38 124.26 266.14C124.26 266.14 124.26 266.14 124.26 266.14C124.26 268.75 125.28 269.68 125.4 270.07C126.15 270.96 127.25 271.4 128.68 271.4C128.68 271.4 128.68 271.4 128.68 271.4C129.43 271.4 129.9 271.19 130.04 271.17C130.45 271.01 130.76 270.84 130.99 270.64L130.99 270.64C130.99 265.09 130.99 262.01 130.99 261.4C130.43 261.06 129.75 260.89 128.97 260.89C128.97 260.89 128.97 260.89 128.97 260.89ZM151.28 271.82C152 271.82 152.7 271.68 152.86 271.67C153.43 271.57 153.86 271.44 154.14 271.27L154.14 271.27L154.14 267.91C152.33 268.06 151.32 268.14 151.11 268.16C149.94 268.25 149.38 268.62 149.18 268.67C148.68 268.95 148.43 269.37 148.43 269.93C148.43 269.93 148.43 269.93 148.43 269.93C148.43 270.77 149.01 271.16 149.08 271.29C149.51 271.64 150.25 271.82 151.28 271.82C151.28 271.82 151.28 271.82 151.28 271.82ZM150.95 255.3C153.22 255.3 154.67 255.72 155.09 255.77C156.96 256.23 157.96 257.03 158.28 257.17C159.6 258.12 160.11 259.33 160.32 259.57C160.79 260.53 161.03 261.68 161.03 262.99L161.03 262.99C161.03 268.64 161.03 271.78 161.03 272.41C161.03 273.5 160.48 274.01 160.42 274.19C160.02 274.65 159.53 275.05 158.97 275.39C158.97 275.39 158.97 275.39 158.97 275.39C157.15 276.48 154.59 277.03 151.28 277.03C151.28 277.03 151.28 277.03 151.28 277.03C149.06 277.03 147.67 276.65 147.27 276.61C145.48 276.19 144.51 275.47 144.2 275.35C142.92 274.51 142.43 273.42 142.23 273.2C141.77 272.34 141.53 271.33 141.53 270.18C141.53 270.18 141.53 270.18 141.53 270.18C141.53 267.28 143.08 266.17 143.26 265.72C144.41 264.69 146.18 264.04 148.59 263.79L148.59 263.79L154.1 263.2C154.1 263.03 154.1 262.93 154.1 262.91C154.1 261.69 153.13 261.34 153.03 261.16C152.31 260.81 151.28 260.64 149.94 260.64C149.94 260.64 149.94 260.64 149.94 260.64C148.34 260.64 147.14 260.94 146.83 260.98C145.82 261.2 144.91 261.48 144.1 261.82C144.1 261.82 144.1 261.82 144.1 261.82C143.55 261.44 143.27 260.78 143.17 260.66C142.92 260.14 142.79 259.6 142.79 259.04C142.79 259.04 142.79 259.04 142.79 259.04C142.79 257.95 143.27 257.47 143.32 257.3C143.67 256.86 144.21 256.49 144.94 256.19C144.94 256.19 144.94 256.19 144.94 256.19C146.16 255.72 147.53 255.58 147.82 255.51C148.92 255.37 149.97 255.3 150.95 255.3C150.95 255.3 150.95 255.3 150.95 255.3ZM172.55 269.34C172.55 270.43 173.17 270.74 173.24 270.89C173.7 271.2 174.35 271.35 175.19 271.35C175.19 271.35 175.19 271.35 175.19 271.35C175.82 271.35 176.37 271.26 176.5 271.25C176.94 271.18 177.34 271.09 177.67 270.98C177.67 270.98 177.67 270.98 177.67 270.98C178.05 271.44 178.26 271.9 178.32 272.01C178.51 272.38 178.6 272.84 178.6 273.37C178.6 273.37 178.6 273.37 178.6 273.37C178.6 274.97 177.52 275.72 177.4 275.98C176.6 276.65 175.19 276.99 173.18 276.99C173.18 276.99 173.18 276.99 173.18 276.99C169.48 276.99 168.05 275.47 167.48 275.3C166.15 274.18 165.49 272.36 165.49 269.84L165.49 269.84C165.49 259.05 165.49 253.06 165.49 251.86C165.95 251.73 166.68 251.61 166.81 251.58C167.38 251.49 167.99 251.44 168.64 251.44C168.64 251.44 168.64 251.44 168.64 251.44C170.49 251.44 171.23 252.02 171.52 252.09C172.2 252.52 172.55 253.44 172.55 254.84L172.55 254.84L172.55 257.53C175.85 257.53 177.68 257.53 178.05 257.53C178.3 257.99 178.49 258.57 178.53 258.69C178.69 259.15 178.76 259.66 178.76 260.22C178.76 260.22 178.76 260.22 178.76 260.22C178.76 261.69 178.18 262.13 178.11 262.34C177.68 262.78 177.1 262.99 176.37 262.99L176.37 262.99L172.55 262.99C172.55 266.8 172.55 268.91 172.55 269.34ZM190.95 271.82C191.66 271.82 192.37 271.68 192.53 271.67C193.1 271.57 193.53 271.44 193.81 271.27L193.81 271.27L193.81 267.91C191.99 268.06 190.98 268.14 190.78 268.16C189.61 268.25 189.04 268.62 188.85 268.67C188.35 268.95 188.09 269.37 188.09 269.93C188.09 269.93 188.09 269.93 188.09 269.93C188.09 270.77 188.68 271.16 188.74 271.29C189.18 271.64 189.91 271.82 190.95 271.82C190.95 271.82 190.95 271.82 190.95 271.82ZM190.61 255.3C192.88 255.3 194.34 255.72 194.75 255.77C196.62 256.23 197.63 257.03 197.95 257.17C199.27 258.12 199.78 259.33 199.98 259.57C200.46 260.53 200.7 261.68 200.7 262.99L200.7 262.99C200.7 268.64 200.7 271.78 200.7 272.41C200.7 273.5 200.15 274.01 200.09 274.19C199.68 274.65 199.2 275.05 198.64 275.39C198.64 275.39 198.64 275.39 198.64 275.39C196.82 276.48 194.26 277.03 190.95 277.03C190.95 277.03 190.95 277.03 190.95 277.03C188.72 277.03 187.34 276.65 186.94 276.61C185.15 276.19 184.18 275.47 183.87 275.35C182.59 274.51 182.09 273.42 181.9 273.2C181.43 272.34 181.2 271.33 181.2 270.18C181.2 270.18 181.2 270.18 181.2 270.18C181.2 267.28 182.75 266.17 182.92 265.72C184.07 264.69 185.85 264.04 188.26 263.79L188.26 263.79L193.77 263.2C193.77 263.03 193.77 262.93 193.77 262.91C193.77 261.69 192.8 261.34 192.69 261.16C191.98 260.81 190.95 260.64 189.61 260.64C189.61 260.64 189.61 260.64 189.61 260.64C188.01 260.64 186.81 260.94 186.5 260.98C185.49 261.2 184.58 261.48 183.76 261.82C183.76 261.82 183.76 261.82 183.76 261.82C183.22 261.44 182.93 260.78 182.84 260.66C182.59 260.14 182.46 259.6 182.46 259.04C182.46 259.04 182.46 259.04 182.46 259.04C182.46 257.95 182.94 257.47 182.99 257.3C183.34 256.86 183.88 256.49 184.61 256.19C184.61 256.19 184.61 256.19 184.61 256.19C185.82 255.72 187.2 255.58 187.48 255.51C188.59 255.37 189.63 255.3 190.61 255.3C190.61 255.3 190.61 255.3 190.61 255.3ZM212.34 276.31C211.88 276.4 211.11 276.52 210.97 276.54C210.37 276.64 209.76 276.69 209.15 276.69C209.15 276.69 209.15 276.69 209.15 276.69C208.22 276.69 207.65 276.58 207.49 276.57C206.75 276.44 206.37 276.11 206.25 276.06C205.74 275.68 205.55 275.13 205.47 275.03C205.29 274.6 205.2 274.03 205.2 273.33L205.2 273.33C205.2 258.71 205.2 250.58 205.2 248.96C205.66 248.87 206.42 248.75 206.56 248.73C207.16 248.63 207.77 248.58 208.39 248.58C208.39 248.58 208.39 248.58 208.39 248.58C209.31 248.58 209.88 248.69 210.05 248.71C210.78 248.83 211.16 249.16 211.29 249.21C211.79 249.59 211.99 250.14 212.07 250.24C212.25 250.67 212.34 251.24 212.34 251.94L212.34 251.94C212.34 266.56 212.34 274.69 212.34 276.31ZM225.58 271.82C226.29 271.82 226.99 271.68 227.15 271.67C227.73 271.57 228.15 271.44 228.43 271.27L228.43 271.27L228.43 267.91C226.62 268.06 225.61 268.14 225.41 268.16C224.23 268.25 223.67 268.62 223.47 268.67C222.97 268.95 222.72 269.37 222.72 269.93C222.72 269.93 222.72 269.93 222.72 269.93C222.72 270.77 223.3 271.16 223.37 271.29C223.8 271.64 224.54 271.82 225.58 271.82C225.58 271.82 225.58 271.82 225.58 271.82ZM225.24 255.3C227.51 255.3 228.96 255.72 229.38 255.77C231.25 256.23 232.25 257.03 232.57 257.17C233.9 258.12 234.41 259.33 234.61 259.57C235.09 260.53 235.32 261.68 235.32 262.99L235.32 262.99C235.32 268.64 235.32 271.78 235.32 272.41C235.32 273.5 234.78 274.01 234.72 274.19C234.31 274.65 233.83 275.05 233.27 275.39C233.27 275.39 233.27 275.39 233.27 275.39C231.44 276.48 228.88 277.03 225.58 277.03C225.58 277.03 225.58 277.03 225.58 277.03C223.35 277.03 221.96 276.65 221.56 276.61C219.78 276.19 218.8 275.47 218.5 275.35C217.21 274.51 216.72 273.42 216.52 273.2C216.06 272.34 215.83 271.33 215.83 270.18C215.83 270.18 215.83 270.18 215.83 270.18C215.83 267.28 217.38 266.17 217.55 265.72C218.7 264.69 220.48 264.04 222.89 263.79L222.89 263.79L228.39 263.2C228.39 263.03 228.39 262.93 228.39 262.91C228.39 261.69 227.43 261.34 227.32 261.16C226.61 260.81 225.58 260.64 224.23 260.64C224.23 260.64 224.23 260.64 224.23 260.64C222.63 260.64 221.43 260.94 221.12 260.98C220.11 261.2 219.2 261.48 218.39 261.82C218.39 261.82 218.39 261.82 218.39 261.82C217.84 261.44 217.56 260.78 217.47 260.66C217.21 260.14 217.09 259.6 217.09 259.04C217.09 259.04 217.09 259.04 217.09 259.04C217.09 257.95 217.56 257.47 217.61 257.3C217.96 256.86 218.5 256.49 219.23 256.19C219.23 256.19 219.23 256.19 219.23 256.19C220.45 255.72 221.82 255.58 222.11 255.51C223.22 255.37 224.26 255.3 225.24 255.3C225.24 255.3 225.24 255.3 225.24 255.3ZM239.78 249C240.2 248.87 240.99 248.75 241.12 248.73C241.74 248.63 242.37 248.58 243.01 248.58C243.01 248.58 243.01 248.58 243.01 248.58C243.94 248.58 244.51 248.69 244.67 248.71C245.41 248.83 245.79 249.16 245.91 249.21C246.42 249.59 246.59 250.14 246.67 250.24C246.84 250.67 246.92 251.24 246.92 251.94L246.92 251.94C246.92 254.41 246.92 255.78 246.92 256.06C247.97 255.64 248.72 255.53 248.92 255.47C249.55 255.36 250.24 255.3 251 255.3C251 255.3 251 255.3 251 255.3C253.02 255.3 254.44 255.95 254.82 256.02C256.63 256.73 257.7 257.89 258.02 258.1C259.4 259.46 259.98 261.14 260.2 261.48C260.73 262.82 261 264.38 261 266.14C261 266.14 261 266.14 261 266.14C261 268.88 260.26 270.44 260.18 270.91C259.36 272.95 258.12 273.96 257.89 274.3C256.42 275.64 254.66 276.13 254.3 276.33C252.88 276.8 251.32 277.03 249.61 277.03C249.61 277.03 249.61 277.03 249.61 277.03C246.84 277.03 245.38 276.44 244.91 276.38C243.62 275.94 242.52 275.4 241.63 274.76C241.63 274.76 241.63 274.76 241.63 274.76C240.39 273.89 239.78 272.77 239.78 271.4L239.78 271.4C239.78 257.96 239.78 250.49 239.78 249ZM249.61 271.4C251.54 271.4 252.32 270.21 252.62 270.07C253.33 269.19 253.69 267.88 253.69 266.14C253.69 266.14 253.69 266.14 253.69 266.14C253.69 263.5 252.7 262.59 252.59 262.19C251.87 261.33 250.89 260.89 249.65 260.89C249.65 260.89 249.65 260.89 249.65 260.89C248.81 260.89 248.35 261.04 248.2 261.06C247.8 261.17 247.36 261.34 246.88 261.56L246.88 261.56C246.88 267.06 246.88 270.11 246.88 270.72C247.34 271.02 247.88 271.16 247.99 271.21C248.43 271.33 248.97 271.4 249.61 271.4C249.61 271.4 249.61 271.4 249.61 271.4Z" id="b6wPxLebD"></path><linearGradient id="gradientcbndo9ge0" gradientUnits="userSpaceOnUse" x1="117.96" y1="274.47" x2="253.47" y2="311.96"><stop style="stop-color: #10d574;stop-opacity: 1" offset="0%"></stop><stop style="stop-color: #50e3c2;stop-opacity: 1" offset="100%"></stop></linearGradient><path d="M117.04 249.62C116.04 249.62 114.98 249.98 114.27 250.76C112.71 252.32 112.71 254.8 114.27 256.36C115.05 257.14 116.04 257.49 117.04 257.49C118.03 257.49 119.09 257.14 119.8 256.36C121.36 254.8 121.36 252.32 119.8 250.76C119.02 249.98 118.03 249.62 117.04 249.62ZM117.04 256.78C116.19 256.78 115.33 256.43 114.77 255.86C114.13 255.22 113.85 254.44 113.85 253.59C113.85 252.74 114.2 251.89 114.77 251.32C115.41 250.68 116.19 250.4 117.04 250.4C117.89 250.4 118.74 250.76 119.3 251.32C119.94 251.96 120.23 252.74 120.23 253.59C120.23 254.37 119.87 255.22 119.3 255.86C118.67 256.5 117.89 256.78 117.04 256.78Z" id="jTAOr4fZ"></path><linearGradient id="gradientb36YHxxEO" gradientUnits="userSpaceOnUse" x1="113.1" y1="253.56" x2="120.97" y2="253.56"><stop style="stop-color: #10d574;stop-opacity: 1" offset="38%"></stop><stop style="stop-color: #50e3c2;stop-opacity: 1" offset="79%"></stop></linearGradient><path d="M76.92 232.07C78.47 230.52 80.98 230.52 82.53 232.07C84.08 233.62 84.08 236.13 82.53 237.69C80.98 239.24 78.47 239.24 76.92 237.69C75.37 236.13 75.37 233.62 76.92 232.07Z" id="cEVihz3Vr"></path><linearGradient id="gradientaebQ800Ym" gradientUnits="userSpaceOnUse" x1="76.92" y1="237.69" x2="82.53" y2="232.07"><stop style="stop-color: #10d574;stop-opacity: 1" offset="38%"></stop><stop style="stop-color: #50e3c2;stop-opacity: 1" offset="79%"></stop></linearGradient><path d="M95.57 250.7C97.12 249.15 99.64 249.15 101.19 250.7C102.74 252.25 102.74 254.77 101.19 256.32C99.64 257.87 97.12 257.87 95.57 256.32C94.02 254.77 94.02 252.25 95.57 250.7Z" id="as2SIUg9T"></path><linearGradient id="gradientdxzOnmXPp" gradientUnits="userSpaceOnUse" x1="95.57" y1="256.32" x2="101.19" y2="250.7"><stop style="stop-color: #10d574;stop-opacity: 1" offset="38%"></stop><stop style="stop-color: #50e3c2;stop-opacity: 1" offset="79%"></stop></linearGradient><path d="M67.63 260C69.18 258.45 71.69 258.45 73.24 260C74.8 261.55 74.8 264.06 73.24 265.61C71.69 267.16 69.18 267.16 67.63 265.61C66.08 264.06 66.08 261.55 67.63 260Z" id="cgk6u4Bb4"></path><linearGradient id="gradientd21Im31l" gradientUnits="userSpaceOnUse" x1="67.63" y1="265.61" x2="73.24" y2="260"><stop style="stop-color: #10d574;stop-opacity: 1" offset="38%"></stop><stop style="stop-color: #50e3c2;stop-opacity: 1" offset="79%"></stop></linearGradient><path d="M100.87 269.12C100.16 268.48 99.24 268.2 98.32 268.2C97.4 268.2 96.55 268.55 95.77 269.12C95.39 268.74 92.38 265.74 92.01 265.36C93.28 263.8 93.21 261.53 91.79 260.04C91.01 259.26 90.02 258.91 89.03 258.91C88.04 258.91 86.97 259.26 86.26 260.04C86.28 260.02 86.38 259.93 86.55 259.76L80.24 253.52C84.02 249.73 86.13 247.63 86.55 247.21C87.26 247.85 88.18 248.13 89.1 248.13C90.09 248.13 91.16 247.78 91.87 247C93.43 245.44 93.43 242.96 91.87 241.4C91.09 240.62 90.09 240.26 89.1 240.26C88.11 240.26 87.04 240.62 86.34 241.4C84.85 242.89 84.85 245.15 86.12 246.71C85.7 247.13 83.6 249.24 79.81 253.02C75.98 249.24 73.86 247.13 73.43 246.71C74.71 245.15 74.64 242.89 73.22 241.4C72.44 240.62 71.45 240.26 70.45 240.26C69.46 240.26 68.4 240.62 67.69 241.4C66.13 242.96 66.13 245.44 67.69 247C68.47 247.78 69.46 248.13 70.45 248.13C71.37 248.13 72.23 247.78 73.01 247.21C73.88 248.08 78.22 252.43 86.05 260.26C86.22 260.09 86.32 259.99 86.34 259.97C84.85 261.46 84.78 263.87 86.19 265.43C85.82 265.81 82.81 268.81 82.44 269.19C81.66 268.48 80.73 268.13 79.74 268.13C78.75 268.13 77.69 268.48 76.98 269.26C75.42 270.82 75.42 273.3 76.98 274.86C77.76 275.64 78.75 276 79.74 276C80.73 276 81.8 275.64 82.51 274.86C83.92 273.44 84 271.25 82.86 269.69C83.24 269.3 86.31 266.24 86.69 265.86C87.4 266.43 88.25 266.71 89.1 266.71C90.02 266.71 90.87 266.35 91.65 265.79C92.03 266.16 95.03 269.17 95.41 269.54C94.13 271.1 94.21 273.37 95.62 274.86C96.4 275.64 97.4 276 98.39 276C99.38 276 100.44 275.64 101.15 274.86C102.64 273.37 102.64 271.1 101.37 269.54C102.24 268.68 106.59 264.33 114.41 256.5L113.92 256.07C106.09 263.9 101.74 268.25 100.87 269.12ZM89.03 240.97C89.88 240.97 90.73 241.33 91.3 241.89C91.94 242.53 92.22 243.31 92.22 244.16C92.22 245.01 91.87 245.86 91.3 246.43C90.66 247.07 89.88 247.35 89.03 247.35C88.18 247.35 87.33 247 86.76 246.43C86.12 245.79 85.84 245.01 85.84 244.16C85.84 243.31 86.12 242.53 86.76 241.89C87.4 241.25 88.18 240.97 89.03 240.97ZM67.19 244.23C67.19 243.38 67.55 242.53 68.11 241.96C68.75 241.33 69.53 241.04 70.38 241.04C71.23 241.04 72.08 241.4 72.65 241.96C73.29 242.6 73.57 243.38 73.57 244.23C73.57 245.08 73.22 245.93 72.65 246.5C72.01 247.14 71.23 247.42 70.38 247.42C69.53 247.42 68.75 247.14 68.11 246.5C67.48 245.86 67.19 245.08 67.19 244.23ZM79.81 275.36C78.96 275.36 78.11 275 77.54 274.44C76.91 273.8 76.62 273.02 76.62 272.17C76.62 271.32 76.98 270.47 77.54 269.9C78.18 269.26 78.96 268.98 79.81 268.98C80.66 268.98 81.51 269.33 82.08 269.9C82.72 270.54 83 271.32 83 272.17C83 273.02 82.65 273.8 82.08 274.44C81.44 275.08 80.66 275.36 79.81 275.36ZM86.76 265.15C86.12 264.51 85.84 263.73 85.84 262.88C85.84 262.03 86.19 261.18 86.76 260.61C87.4 259.97 88.18 259.69 89.03 259.69C89.88 259.69 90.73 260.04 91.3 260.61C91.94 261.25 92.22 262.03 92.22 262.88C92.22 263.73 91.87 264.58 91.3 265.15C90.73 265.72 89.95 266.07 89.03 266.07C88.18 266.07 87.33 265.72 86.76 265.15ZM98.39 275.36C97.54 275.36 96.69 275 96.12 274.44C94.91 273.23 94.84 271.25 95.98 269.97C96 269.95 96.17 269.78 96.19 269.76C96.76 269.19 97.54 268.91 98.32 268.91C99.1 268.91 99.88 269.19 100.44 269.76C100.47 269.78 100.64 269.95 100.66 269.97C101.22 270.54 101.51 271.32 101.51 272.1C101.65 273.02 101.3 273.8 100.66 274.44C100.02 275.08 99.24 275.36 98.39 275.36Z" id="c4ClgCnyQY"></path><linearGradient id="gradienta1y8koDos" gradientUnits="userSpaceOnUse" x1="66.52" y1="258.13" x2="114.41" y2="258.13"><stop style="stop-color: #10d574;stop-opacity: 1" offset="38%"></stop><stop style="stop-color: #50e3c2;stop-opacity: 1" offset="79%"></stop></linearGradient></defs><g><g><g><use xlink:href="#b6wPxLebD" opacity="1" fill="url(#gradientcbndo9ge0)"></use><g><use xlink:href="#b6wPxLebD" opacity="1" fill-opacity="0" stroke="#000000" stroke-width="1" stroke-opacity="0"></use></g></g><g><use xlink:href="#jTAOr4fZ" opacity="1" fill="url(#gradientb36YHxxEO)"></use><g><use xlink:href="#jTAOr4fZ" opacity="1" fill-opacity="0" stroke="#000000" stroke-width="1" stroke-opacity="0"></use></g></g><g><use xlink:href="#cEVihz3Vr" opacity="1" fill="url(#gradientaebQ800Ym)"></use><g><use xlink:href="#cEVihz3Vr" opacity="1" fill-opacity="0" stroke="#000000" stroke-width="1" stroke-opacity="0"></use></g></g><g><use xlink:href="#as2SIUg9T" opacity="1" fill="url(#gradientdxzOnmXPp)"></use><g><use xlink:href="#as2SIUg9T" opacity="1" fill-opacity="0" stroke="#000000" stroke-width="1" stroke-opacity="0"></use></g></g><g><use xlink:href="#cgk6u4Bb4" opacity="1" fill="url(#gradientd21Im31l)"></use><g><use xlink:href="#cgk6u4Bb4" opacity="1" fill-opacity="0" stroke="#000000" stroke-width="1" stroke-opacity="0"></use></g></g><g><use xlink:href="#c4ClgCnyQY" opacity="1" fill="url(#gradienta1y8koDos)"></use><g><use xlink:href="#c4ClgCnyQY" opacity="1" fill-opacity="0" stroke="#000000" stroke-width="1" stroke-opacity="0"></use></g></g></g></g></svg>