<?xml version="1.0" encoding="UTF-8" standalone="no"?>
<!DOCTYPE svg PUBLIC "-//W3C//DTD SVG 1.1//EN" "http://www.w3.org/Graphics/SVG/1.1/DTD/svg11.dtd">
<svg version="1.1" xmlns="http://www.w3.org/2000/svg" xmlns:xlink="http://www.w3.org/1999/xlink" preserveAspectRatio="xMidYMid meet" viewBox="0 0 640 640" width="640" height="640"><defs><path d="M-15.5 665L660.5 670L660.5 419C660.5 419 660.5 419 660.5 419C618.13 392.95 567.34 384.24 518.71 394.69C496.07 399.55 491.9 400.45 466.25 405.96C430.41 413.65 393.86 396.38 377.05 363.81C367.13 344.56 356.76 324.48 344.57 300.85C333.75 279.86 313.82 265.06 290.61 260.76C267.88 256.54 287.53 260.19 277.57 258.34C213.26 246.41 156.52 208.98 120.25 154.55C115.36 147.21 109.35 140.27 102.22 133.73C73 106.95 38.38 96.25 -1.63 101.64C-11.14 102.92 -18.23 111.06 -18.18 120.66C-17.82 193.24 -16.93 374.69 -15.5 665Z" id="b3bIbLljsc"></path><linearGradient id="gradiente50ATeqGEv" gradientUnits="userSpaceOnUse" x1="2.25" y1="110.84" x2="849.35" y2="794.49"><stop style="stop-color: #50e3c2;stop-opacity: 1" offset="0%"></stop><stop style="stop-color: #10d574;stop-opacity: 1" offset="100%"></stop></linearGradient></defs><g><g><g><use xlink:href="#b3bIbLljsc" opacity="1" fill="url(#gradiente50ATeqGEv)"></use></g></g></g></svg>