<?xml version="1.0" encoding="UTF-8" standalone="no"?>
<!DOCTYPE svg PUBLIC "-//W3C//DTDSVG1.1//EN" "http://www.w3.org/Graphics/SVG/1.1/DTD/svg11.dtd">
<svg version="1.1" xmlns="http://www.w3.org/2000/svg" xmlns:xlink="http://www.w3.org/1999/xlink" preserveAspectRatio="xMidYMid meet" viewBox="0 0 640 640" width="640" height="640">
    <defs>
        <path d="" id="aRz5ocpUN"></path>
        <path d="M-0.72 640L302.06 640C289.97 615.59 282.41 600.33 279.39 594.23C269.62 574.5 251.21 560.44 229.6 556.22C216.58 553.67 207.36 551.86 193.23 549.1C175.39 545.61 160.69 533.03 154.48 515.94C148.85 500.41 145.55 491.34 140.82 478.31C131.47 452.55 112.96 431.13 88.82 418.15C67.2 406.53 51.18 398.88 40.75 395.21C26.32 390.14 14.16 375.61 4.28 351.64C2.9 348.28 -2.1 349.29 -2.08 352.91C-1.9 391.19 -1.45 486.89 -0.72 640Z" id="bbaNU0gYH"></path>
    </defs>
    <g>
        <g>
            <g>
                <g>
                    <use xlink:href="#aRz5ocpUN" opacity="1" fill-opacity="0" stroke="#000000" stroke-width="1" stroke-opacity="1"></use>
                </g>
            </g>
            <g>
                <use xlink:href="#bbaNU0gYH" opacity="1" fill="#07100e" fill-opacity="1"></use>
                <g>
                    <use xlink:href="#bbaNU0gYH" opacity="1" fill-opacity="0" stroke="#000000" stroke-width="0" stroke-opacity="1"></use>
                </g>
            </g>
        </g>
    </g>
</svg>
