<?xml version="1.0" encoding="UTF-8" standalone="no"?>
<!DOCTYPE svg PUBLIC "-//W3C//DTD SVG 1.1//EN" "http://www.w3.org/Graphics/SVG/1.1/DTD/svg11.dtd">
<svg version="1.1" xmlns="http://www.w3.org/2000/svg" xmlns:xlink="http://www.w3.org/1999/xlink" preserveAspectRatio="xMidYMid meet" viewBox="0 0 640 640" width="640" height="640"><defs><path d="" id="aRz5ocpUN"></path><path d="M-0.72 640L302.06 640C289.97 615.59 282.41 600.33 279.39 594.23C269.62 574.5 251.21 560.44 229.6 556.22C216.58 553.67 207.36 551.86 193.23 549.1C175.39 545.61 160.69 533.03 154.48 515.94C148.85 500.41 145.55 491.34 140.82 478.31C131.47 452.55 112.96 431.13 88.82 418.15C67.2 406.53 51.18 398.88 40.75 395.21C21.98 388.61 8.4 368.88 0 336.02L-0.72 640Z" id="bdrguurm3"></path><linearGradient id="gradientcG6p4u3GG" gradientUnits="userSpaceOnUse" x1="7.23" y1="381.51" x2="425" y2="956.29"><stop style="stop-color: #50e3c2;stop-opacity: 1" offset="0%"></stop><stop style="stop-color: #10d574;stop-opacity: 1" offset="100%"></stop></linearGradient><path d="" id="agp6Luis2"></path></defs><g><g><g><g><use xlink:href="#aRz5ocpUN" opacity="1" fill-opacity="0" stroke="#000000" stroke-width="1" stroke-opacity="1"></use></g></g><g><use xlink:href="#bdrguurm3" opacity="1" fill="url(#gradientcG6p4u3GG)"></use><g><use xlink:href="#bdrguurm3" opacity="1" fill-opacity="0" stroke="#000000" stroke-width="0" stroke-opacity="1"></use></g></g><g><g><use xlink:href="#agp6Luis2" opacity="1" fill-opacity="0" stroke="#000000" stroke-width="0" stroke-opacity="1"></use></g></g></g></g></svg>
