<svg width="1058" height="809" viewBox="0 0 1058 809" fill="none" xmlns="http://www.w3.org/2000/svg">
<path d="M23.3311 163.439C48.1311 84.6386 212.664 45.2719 291.831 35.4386L303.331 33.9386C310.831 32.9386 324.431 29.9386 454.831 7.93857C617.831 -19.5614 664.831 35.4386 785.331 7.93857C905.831 -19.5614 962.831 88.4386 1039.83 181.439C1116.83 274.439 915.331 342.439 882.331 440.939C849.331 539.439 1028.83 526.939 1015.83 693.439C1002.83 859.939 834.831 775.439 620.831 766.439C406.831 757.439 350.331 846.939 180.331 788.439C10.3311 729.939 227.831 618.439 99.8311 490.439C-28.1689 362.439 -7.66892 261.939 23.3311 163.439Z" fill="url(#paint0_linear)"/>
<g clip-path="url(#clip0)">
<path d="M530.932 590C694.169 590 826.499 580.018 826.499 567.704C826.499 555.391 694.169 545.409 530.932 545.409C367.694 545.409 235.365 555.391 235.365 567.704C235.365 580.018 367.694 590 530.932 590Z" fill="#F2F2F2"/>
<path d="M519.603 323.627C471.447 323.627 436.872 358.83 436.872 440.972C436.872 534.066 471.447 558.708 519.603 558.708C567.759 558.708 604.394 531.719 604.394 440.972C604.394 343.967 567.759 323.627 519.603 323.627ZM519.92 527.807C486.566 527.807 469.141 505.511 469.141 441.032C469.141 384.139 487.279 354.136 520.633 354.136C553.987 354.136 572.126 373.844 572.126 441.032C572.126 503.885 553.274 527.807 519.92 527.807Z" fill="#2F2E41"/>
<path d="M408.036 493.777H388.126V426.97C388.126 423.422 386.889 420.019 384.687 417.51C382.485 415.001 379.498 413.591 376.384 413.591H371.718C370.176 413.591 368.65 413.937 367.225 414.61C365.8 415.282 364.506 416.268 363.416 417.51C362.325 418.752 361.46 420.227 360.87 421.85C360.28 423.474 359.976 425.213 359.976 426.97V493.777H303.816C302.66 493.777 301.525 493.437 300.519 492.789C299.513 492.142 298.671 491.209 298.075 490.082C297.478 488.954 297.148 487.67 297.115 486.354C297.083 485.038 297.349 483.735 297.889 482.571L357.329 354.384C358.07 352.785 358.519 351.033 358.649 349.231C358.779 347.43 358.588 345.617 358.086 343.902C357.584 342.188 356.783 340.606 355.73 339.254C354.677 337.902 353.395 336.807 351.961 336.035L348.452 334.147C345.727 332.681 342.612 332.465 339.752 333.543C336.891 334.621 334.503 336.91 333.083 339.938L260.588 494.463C259.354 497.094 258.708 500.032 258.708 503.016V503.016C258.708 505.398 259.12 507.757 259.92 509.958C260.72 512.159 261.893 514.159 263.371 515.844C264.85 517.529 266.605 518.865 268.537 519.777C270.468 520.688 272.539 521.158 274.63 521.158H359.976V563.402C359.976 565.508 360.34 567.593 361.048 569.539C361.755 571.485 362.792 573.253 364.099 574.742C365.406 576.231 366.957 577.412 368.665 578.218C370.373 579.024 372.203 579.439 374.051 579.439H374.051C375.899 579.439 377.73 579.024 379.437 578.218C381.145 577.412 382.696 576.231 384.003 574.742C385.31 573.253 386.347 571.485 387.054 569.539C387.762 567.593 388.126 565.508 388.126 563.402V521.158H408.036C411.223 521.158 414.279 519.715 416.532 517.148C418.785 514.58 420.051 511.098 420.051 507.467V507.467C420.051 503.836 418.785 500.354 416.532 497.787C414.279 495.219 411.223 493.777 408.036 493.777V493.777Z" fill="#10D574"/>
<path d="M776.723 493.777H756.812V426.97C756.812 423.422 755.575 420.019 753.373 417.51C751.171 415.001 748.185 413.591 745.07 413.591H740.405C738.863 413.591 737.336 413.937 735.912 414.61C734.487 415.282 733.193 416.268 732.102 417.51C731.012 418.752 730.147 420.227 729.557 421.85C728.967 423.474 728.663 425.213 728.663 426.97V493.777H672.502C671.347 493.777 670.211 493.437 669.205 492.789C668.199 492.142 667.357 491.209 666.761 490.082C666.165 488.954 665.834 487.67 665.802 486.354C665.769 485.038 666.036 483.735 666.576 482.571L726.015 354.384C726.756 352.785 727.206 351.033 727.336 349.231C727.466 347.43 727.274 345.617 726.773 343.902C726.271 342.188 725.47 340.606 724.417 339.254C723.364 337.902 722.082 336.807 720.647 336.035L717.138 334.147C714.414 332.681 711.299 332.465 708.438 333.543C705.577 334.621 703.19 336.91 701.769 339.938L629.275 494.463C628.04 497.094 627.394 500.032 627.394 503.016V503.016C627.394 507.827 629.072 512.442 632.058 515.844C635.044 519.246 639.094 521.158 643.316 521.158H728.663V563.402C728.663 567.655 730.146 571.734 732.785 574.742C735.425 577.749 739.005 579.439 742.738 579.439V579.439C746.47 579.439 750.05 577.749 752.69 574.742C755.329 571.734 756.812 567.655 756.812 563.402V521.158H776.723C779.909 521.158 782.965 519.715 785.219 517.148C787.472 514.58 788.738 511.098 788.738 507.467V507.467C788.738 503.836 787.472 500.354 785.219 497.787C782.965 495.219 779.909 493.777 776.723 493.777Z" fill="#10D574"/>
<path d="M413.529 485.954H393.618V419.147C393.618 417.39 393.315 415.651 392.724 414.027C392.134 412.404 391.269 410.929 390.179 409.687C389.089 408.445 387.794 407.459 386.37 406.787C384.945 406.114 383.418 405.768 381.876 405.768H377.211C374.097 405.768 371.11 407.178 368.908 409.687C366.706 412.196 365.469 415.599 365.469 419.147V485.954H309.308C308.153 485.954 307.017 485.614 306.011 484.966C305.005 484.319 304.163 483.386 303.567 482.259C302.971 481.131 302.64 479.847 302.608 478.531C302.575 477.215 302.842 475.912 303.382 474.748L362.821 346.561C363.562 344.962 364.012 343.21 364.142 341.408C364.272 339.607 364.08 337.794 363.579 336.079C363.077 334.365 362.276 332.783 361.223 331.431C360.17 330.079 358.888 328.984 357.453 328.212L353.944 326.324C351.22 324.858 348.105 324.642 345.244 325.72C342.383 326.798 339.996 329.087 338.575 332.115L266.081 486.64C264.846 489.271 264.2 492.209 264.2 495.193V495.193C264.2 500.004 265.878 504.619 268.864 508.021C271.85 511.423 275.899 513.335 280.122 513.335H365.469V555.579C365.469 557.685 365.833 559.77 366.54 561.716C367.248 563.662 368.284 565.43 369.591 566.919C370.898 568.408 372.45 569.589 374.157 570.395C375.865 571.201 377.695 571.616 379.544 571.616H379.544C383.276 571.616 386.856 569.926 389.496 566.919C392.135 563.911 393.618 559.832 393.618 555.579V513.335H413.529C415.106 513.335 416.669 512.98 418.127 512.292C419.584 511.604 420.909 510.596 422.025 509.325C423.14 508.054 424.025 506.544 424.629 504.883C425.233 503.222 425.544 501.442 425.544 499.644V499.644C425.544 497.846 425.233 496.066 424.629 494.405C424.025 492.744 423.14 491.235 422.025 489.964C420.909 488.693 419.584 487.684 418.127 486.996C416.669 486.308 415.107 485.954 413.529 485.954V485.954Z" stroke="#3F3D56" stroke-miterlimit="10"/>
<path d="M787.021 485.954H767.111V419.147C767.111 415.599 765.874 412.196 763.672 409.687C761.47 407.178 758.483 405.768 755.369 405.768H750.703C749.161 405.768 747.635 406.114 746.21 406.787C744.785 407.459 743.491 408.445 742.401 409.687C741.31 410.929 740.445 412.404 739.855 414.027C739.265 415.651 738.962 417.39 738.962 419.147V485.954H682.801C681.646 485.954 680.51 485.614 679.504 484.966C678.498 484.319 677.656 483.386 677.06 482.259C676.463 481.131 676.133 479.847 676.1 478.531C676.068 477.215 676.334 475.912 676.874 474.748L736.314 346.561C737.055 344.962 737.504 343.21 737.634 341.408C737.764 339.607 737.573 337.794 737.071 336.079C736.57 334.365 735.768 332.783 734.715 331.431C733.663 330.079 732.38 328.984 730.946 328.212L727.437 326.324C724.712 324.858 721.597 324.642 718.737 325.72C715.876 326.798 713.488 329.087 712.068 332.115L639.573 486.64C638.339 489.271 637.693 492.209 637.693 495.193C637.693 500.004 639.37 504.619 642.356 508.021C645.342 511.423 649.392 513.335 653.615 513.335H738.962V555.579C738.962 559.832 740.444 563.911 743.084 566.919C745.723 569.926 749.303 571.616 753.036 571.616V571.616C756.769 571.616 760.349 569.926 762.988 566.919C765.628 563.911 767.111 559.832 767.111 555.579V513.335H787.021C788.599 513.335 790.161 512.98 791.619 512.292C793.077 511.604 794.401 510.596 795.517 509.325C796.633 508.054 797.518 506.544 798.122 504.883C798.725 503.222 799.036 501.442 799.036 499.644V499.644C799.036 496.013 797.77 492.531 795.517 489.964C793.264 487.396 790.208 485.954 787.021 485.954V485.954Z" stroke="#3F3D56" stroke-miterlimit="10"/>
<path d="M530.588 316.586C482.432 316.586 447.857 351.79 447.857 433.931C447.857 527.025 482.432 551.667 530.588 551.667C578.744 551.667 615.38 524.678 615.38 433.931C615.379 336.926 578.744 316.586 530.588 316.586ZM530.905 520.766C497.551 520.766 480.126 498.47 480.126 433.991C480.126 377.098 498.264 347.096 531.618 347.096C564.972 347.096 583.111 366.803 583.111 433.991C583.111 496.845 564.259 520.766 530.905 520.766V520.766Z" stroke="#3F3D56" stroke-miterlimit="10"/>
<path d="M491.988 236.889C495.981 236.889 499.217 233.201 499.217 228.652C499.217 224.103 495.981 220.415 491.988 220.415C487.996 220.415 484.76 224.103 484.76 228.652C484.76 233.201 487.996 236.889 491.988 236.889Z" fill="#2F2E41"/>
<path d="M509.619 276.867C520.817 276.867 529.895 263.465 529.895 246.933C529.895 230.402 520.817 217 509.619 217C498.421 217 489.344 230.402 489.344 246.933C489.344 263.465 498.421 276.867 509.619 276.867Z" fill="#2F2E41"/>
<path opacity="0.1" d="M509.619 267.826C499.462 267.826 491.05 256.8 489.574 242.413C489.42 243.914 489.343 245.423 489.344 246.933C489.344 263.465 498.421 276.867 509.619 276.867C520.817 276.867 529.895 263.465 529.895 246.933C529.896 245.423 529.819 243.914 529.665 242.413C528.189 256.8 519.777 267.826 509.619 267.826Z" fill="black"/>
<path d="M550.878 334.595C550.443 336.633 548.565 338.266 546.486 339.407C542.115 341.806 536.722 342.521 531.492 342.762C530.158 342.854 528.819 342.826 527.489 342.677C524.911 342.393 522.493 341.127 520.625 339.082C520.491 338.983 520.382 338.847 520.308 338.687C520.233 338.527 520.195 338.348 520.197 338.166C520.2 337.985 520.242 337.808 520.322 337.65C520.401 337.493 520.513 337.361 520.649 337.266C523.434 333.781 528.08 331.644 532.761 330.105C536.31 328.939 542.5 325.917 546.371 326.325C550.121 326.72 551.428 332.02 550.878 334.595Z" fill="#3F3D56"/>
<path opacity="0.1" d="M550.878 334.595C550.443 336.633 548.565 338.266 546.486 339.407C542.115 341.806 536.722 342.521 531.492 342.762C530.158 342.854 528.819 342.826 527.489 342.677C524.911 342.393 522.493 341.127 520.625 339.082C520.491 338.983 520.382 338.847 520.308 338.687C520.233 338.527 520.195 338.348 520.197 338.166C520.2 337.985 520.242 337.808 520.322 337.65C520.401 337.493 520.513 337.361 520.649 337.266C523.434 333.781 528.08 331.644 532.761 330.105C536.31 328.939 542.5 325.917 546.371 326.325C550.121 326.72 551.428 332.02 550.878 334.595Z" fill="black"/>
<path d="M495.296 319.357C493.961 322.337 493.72 325.798 494.624 328.981C495.544 332.14 497.266 334.916 499.571 336.96C505.227 342.126 513.012 342.837 520.261 342.765C526.614 342.702 532.958 342.206 539.258 341.281C541.37 341.068 543.445 340.519 545.423 339.65C547.789 338.484 549.868 336.345 550.71 333.569C551.552 330.793 550.954 327.393 548.954 325.541C547.196 323.913 544.773 323.689 542.512 323.534L529.575 322.648C530.853 321.174 532.555 320.341 534.111 319.269C536.176 317.848 537.548 315.461 539.05 313.31C541.363 310.159 543.88 307.211 546.579 304.488C547 307.24 548.528 309.5 550.326 311.399C552.125 313.298 554.197 314.826 556.066 316.634C560.593 321.013 563.852 326.956 568.613 331C571.888 330.019 574.949 328.277 577.605 325.884L575.755 322.065C575.601 321.672 575.361 321.331 575.058 321.074C574.534 320.707 573.859 320.896 573.251 320.792C571.625 320.514 570.915 318.376 570.278 316.65C568.527 311.912 565.174 308.236 562.311 304.262C560.198 301.329 558.323 298.183 556.71 294.862C555.749 292.882 554.868 290.82 553.563 289.114C552.258 287.408 550.429 286.067 548.442 286.062C546.687 286.058 545.069 287.073 543.56 288.094C538.964 291.205 534.542 294.638 530.319 298.373C528.11 300.327 525.913 302.393 523.321 303.591C522.23 304.096 521.08 304.441 520.033 305.055C518.199 306.13 516.807 307.95 515.308 309.565C509.964 315.326 502.648 319.058 495.296 319.357Z" fill="#3F3D56"/>
<path d="M522.346 278.353C522.285 280.114 521.957 281.85 521.374 283.482C521.079 284.296 520.639 285.032 520.083 285.645C519.527 286.257 518.867 286.732 518.142 287.04C517.114 287.354 516.036 287.394 514.992 287.157C514.081 287.048 513.204 286.708 512.425 286.16C511.212 285.21 510.607 283.514 510.386 281.855C510.166 280.198 510.265 278.504 510.124 276.835C509.986 275.486 509.761 274.151 509.45 272.841C509.355 272.405 509.258 271.971 509.163 271.537C509.069 271.103 508.978 270.669 508.893 270.235C508.815 269.827 508.743 269.418 508.681 269.006C508.63 268.658 508.584 268.309 508.551 267.957C508.52 266.915 508.368 265.882 508.098 264.885C507.845 264.239 507.527 263.628 507.153 263.063C506.992 262.802 506.837 262.541 506.694 262.27C506.281 261.565 506.089 260.722 506.15 259.877C506.167 259.746 506.194 259.618 506.232 259.493C506.247 259.445 506.262 259.397 506.28 259.351C506.439 259.302 506.584 259.209 506.705 259.081C506.825 258.954 506.916 258.794 506.969 258.617C507.03 258.237 507.002 257.846 506.887 257.482C506.755 256.975 506.575 256.485 506.349 256.022C506.201 255.716 505.698 255.166 505.695 254.816C505.688 254.113 506.894 253.547 507.382 253.27C508.873 252.419 510.535 252.035 512.199 252.157C513.266 252.239 514.422 252.613 515.011 253.631C515.54 254.549 515.469 255.739 515.695 256.805C515.719 256.96 515.776 257.106 515.863 257.229C515.978 257.349 516.122 257.424 516.277 257.446C516.538 257.505 516.806 257.518 517.07 257.482H517.072C517.142 257.476 517.212 257.465 517.28 257.448C517.692 257.362 518.081 257.17 518.419 256.888C518.638 256.821 518.858 256.767 519.08 256.725C519.089 256.724 519.098 256.722 519.107 256.719C519.99 259.895 520.105 263.3 520.828 266.535C521.185 268.144 521.699 269.733 521.771 271.388C521.776 271.461 521.778 271.535 521.78 271.609C521.79 272.142 521.753 272.678 521.773 273.208C521.779 273.447 521.803 273.685 521.843 273.92C521.922 274.297 522.02 274.668 522.138 275.033L522.143 275.051C522.176 275.167 522.208 275.286 522.235 275.404C522.254 275.491 522.272 275.575 522.286 275.661L522.287 275.667C522.418 276.555 522.438 277.459 522.346 278.353V278.353Z" fill="#FBBEBE"/>
<path d="M509.972 257.581C515.717 257.581 520.374 252.274 520.374 245.728C520.374 239.182 515.717 233.875 509.972 233.875C504.227 233.875 499.57 239.182 499.57 245.728C499.57 252.274 504.227 257.581 509.972 257.581Z" fill="#FBBEBE"/>
<path d="M576.015 310.308C575.713 307.074 574.704 303.978 573.081 301.304C573.35 303.132 573.621 304.959 573.892 306.786C573.555 306.897 573.197 306.894 572.862 306.776C572.527 306.659 572.229 306.433 572.005 306.125C571.567 305.502 571.232 304.793 571.016 304.034C569.834 300.691 568.289 297.53 566.416 294.626C559.794 293.997 553.248 290.869 547.424 287.223C541.599 283.579 536.147 279.209 530.399 275.41C529.403 274.724 528.365 274.12 527.293 273.602C525.494 272.781 523.476 272.355 521.771 271.388C521.656 271.324 521.542 271.256 521.429 271.185C521.044 270.947 520.679 270.668 520.339 270.352C520.156 270.182 519.981 269.999 519.817 269.805C518.967 268.678 518.292 267.392 517.823 266.004C516.908 263.698 516.582 260.916 515.669 258.609C516.088 258.162 516.56 257.783 517.07 257.482H517.072C517.146 257.438 517.22 257.396 517.296 257.356C517.657 257.162 518.033 257.005 518.419 256.888C518.638 256.821 518.858 256.767 519.08 256.725C519.089 256.724 519.098 256.722 519.107 256.719C520.137 256.528 521.192 256.623 522.183 256.996C523.633 257.555 524.854 258.67 526.073 259.724C528.052 261.313 529.95 263.029 531.759 264.863C532.764 265.96 533.681 267.165 534.761 268.162C535.659 268.952 536.606 269.667 537.595 270.301C543.443 274.271 549.292 278.24 555.141 282.209C557.121 283.553 559.103 284.897 561.039 286.319C563.98 288.481 566.815 290.823 569.648 293.163C571.318 294.542 572.987 295.92 574.655 297.3C575.203 297.698 575.683 298.204 576.075 298.794C576.42 299.465 576.635 300.213 576.704 300.986C577.123 304.112 576.887 307.306 576.015 310.308V310.308Z" fill="#FBBEBE"/>
<path d="M524.925 287.267C524.223 290.853 521.043 293.021 519.38 296.171C517.314 300.08 518.156 304.624 518.932 309.102C517.515 310.495 516.097 311.887 514.678 313.279C513.895 314.044 513.112 314.814 512.269 315.491C511.041 316.429 509.756 317.27 508.426 318.006C507.17 318.741 505.915 319.477 504.66 320.214C503.493 320.962 502.256 321.559 500.973 321.994C498.499 322.717 495.872 322.211 493.425 321.373C493.137 321.287 492.859 321.158 492.6 320.989C492.447 320.886 492.314 320.748 492.209 320.586C491.967 320.093 491.88 319.521 491.96 318.964C492.209 314.271 493.215 309.677 494.219 305.117C494.755 302.381 495.476 299.696 496.375 297.087C497.257 294.851 498.271 292.686 499.409 290.606C500.666 287.989 502.155 285.526 503.852 283.255C504.679 282.381 505.374 281.359 505.912 280.23C506.538 278.603 506.296 276.736 506.423 274.964C506.52 273.633 506.83 272.333 507.338 271.129V271.127C507.61 270.479 507.937 269.862 508.315 269.287C508.486 269.741 508.657 270.194 508.828 270.647C508.941 270.944 509.052 271.241 509.163 271.537C509.307 271.919 509.451 272.299 509.593 272.678C510.004 273.767 510.414 274.855 510.824 275.943C511.266 277.312 511.897 278.593 512.693 279.738C513.056 280.324 513.547 280.792 514.117 281.097C514.687 281.403 515.316 281.534 515.944 281.479C516.572 281.424 517.177 281.185 517.699 280.784C518.222 280.384 518.644 279.835 518.925 279.193C519.518 277.994 519.947 276.7 520.198 275.354C520.546 273.715 520.594 272.013 520.339 270.352C519.914 267.154 518.721 263.887 517.853 260.916C517.5 259.925 517.296 258.874 517.248 257.806C517.25 257.686 517.261 257.566 517.28 257.448C517.285 257.418 517.291 257.386 517.296 257.356C517.657 257.162 518.033 257.005 518.419 256.888C518.638 256.821 518.858 256.767 519.08 256.725C519.844 261.434 520.608 266.143 521.374 270.852C521.392 270.962 521.411 271.073 521.429 271.185C521.538 271.86 521.649 272.535 521.773 273.208C521.884 273.819 522.004 274.428 522.138 275.033L522.143 275.051C522.189 275.256 522.236 275.459 522.286 275.661L522.287 275.667C522.423 276.222 522.575 276.772 522.746 277.315C523.783 280.583 525.59 283.874 524.925 287.267Z" fill="#10D574"/>
<path d="M567.142 337.662C567.109 338.352 567.226 339.042 567.483 339.668C568.134 341.024 569.697 341.332 571.048 341.459C578.944 342.199 586.889 341.923 594.731 340.637C595.156 340.604 595.569 340.458 595.936 340.211C597.051 339.32 596.364 337.149 595.146 336.454C593.929 335.759 592.484 335.927 591.148 335.626C589.821 335.245 588.557 334.621 587.406 333.777C584.697 332.003 582.028 330.155 579.398 328.23C577.832 327.084 575.984 325.861 574.22 326.541C569.444 328.382 567.11 331.79 567.142 337.662Z" fill="#3F3D56"/>
<path d="M508.934 269.984V269.986C508.921 270.07 508.909 270.153 508.893 270.235C508.874 270.372 508.851 270.51 508.828 270.647C508.609 271.923 508.341 273.192 508.033 274.454C507.186 277.94 506.053 281.369 504.928 284.748C501.909 293.808 498.89 302.869 495.871 311.931C495.109 314.213 494.349 316.497 493.483 318.733C493.194 319.479 492.896 320.23 492.6 320.989C491.539 323.707 490.52 326.514 490.181 329.407C489.866 331.311 489.829 333.261 490.074 335.179C490.412 337.075 491.422 338.927 493.004 339.628C493.776 339.972 494.882 340.432 494.67 341.346C494.555 341.848 494.055 342.093 493.605 342.178C493.011 342.286 492.404 342.243 491.826 342.054C491.249 341.864 490.715 341.532 490.262 341.081C489.418 340.227 488.769 338.899 487.646 338.757C486.868 338.66 486.152 339.19 485.44 339.562C482.535 341.075 479.149 340.016 476.097 338.941C476.337 337.533 477.578 336.605 478.811 336.324C480.043 336.04 481.318 336.241 482.575 336.203C482.978 336.228 483.377 336.111 483.719 335.868C484.026 335.547 484.241 335.128 484.336 334.666C485.146 331.932 485.748 329.124 486.137 326.273C486.542 323.294 486.711 320.268 487.29 317.325C487.739 315.029 488.434 312.805 489.03 310.551C490.182 305.91 491.128 301.206 491.865 296.456C492.237 294.483 492.504 292.486 492.664 290.475C492.764 288.808 492.716 287.133 492.857 285.471C493.094 283.31 493.49 281.175 494.041 279.089C494.58 276.813 495.119 274.538 495.657 272.264C496.456 268.899 497.313 265.404 499.337 262.788C500.04 261.867 500.901 261.121 501.868 260.595C502.834 260.069 503.886 259.775 504.956 259.73C505.357 259.73 505.758 259.779 506.15 259.877C506.215 259.895 506.28 259.913 506.345 259.933C506.772 260.061 507.182 260.254 507.564 260.508C508.188 260.056 508.505 260.215 508.919 260.912C509.283 261.649 509.454 262.49 509.413 263.334C509.448 265.564 509.287 267.791 508.934 269.984Z" fill="#FBBEBE"/>
<path d="M509.619 272.648L509.593 272.678L509.45 272.841L508.033 274.454L507.338 271.129L504.956 259.73C505.357 259.73 505.758 259.779 506.15 259.877C506.167 259.746 506.194 259.618 506.233 259.493L506.345 259.933L507.153 263.063L508.681 269.006L508.934 269.984V269.986L509.619 272.648Z" fill="#10D574"/>
<path d="M518.615 236.283C518.613 237.338 518.43 238.383 518.074 239.358C517.718 240.332 517.197 241.217 516.541 241.962C516.304 242.234 516.049 242.485 515.779 242.713C514.563 243.758 513.08 244.324 511.557 244.325H503.098C501.229 244.322 499.438 243.473 498.117 241.966C496.796 240.459 496.055 238.416 496.055 236.287C496.055 234.157 496.796 232.114 498.117 230.607C499.438 229.1 501.229 228.252 503.098 228.249H511.557C513.426 228.254 515.217 229.102 516.54 230.607C517.862 232.113 518.608 234.153 518.615 236.283V236.283Z" fill="#2F2E41"/>
<path d="M526.545 236.889C530.538 236.889 533.774 233.201 533.774 228.652C533.774 224.103 530.538 220.415 526.545 220.415C522.553 220.415 519.316 224.103 519.316 228.652C519.316 233.201 522.553 236.889 526.545 236.889Z" fill="#2F2E41"/>
<path opacity="0.1" d="M526.369 220.415C526.28 220.415 526.192 220.419 526.104 220.423C527.974 220.5 529.745 221.401 531.044 222.936C532.343 224.471 533.069 226.52 533.069 228.652C533.069 230.784 532.343 232.833 531.044 234.368C529.745 235.903 527.974 236.804 526.104 236.881C526.192 236.885 526.28 236.889 526.369 236.889C528.286 236.889 530.125 236.021 531.48 234.476C532.836 232.931 533.598 230.836 533.598 228.652C533.598 226.467 532.836 224.372 531.48 222.828C530.125 221.283 528.286 220.415 526.369 220.415V220.415Z" fill="black"/>
<path opacity="0.1" d="M491.988 220.415C492.077 220.415 492.165 220.419 492.253 220.423C490.383 220.5 488.612 221.401 487.313 222.936C486.014 224.471 485.289 226.52 485.289 228.652C485.289 230.784 486.014 232.833 487.313 234.368C488.612 235.903 490.383 236.804 492.253 236.881C492.165 236.885 492.077 236.889 491.988 236.889C490.072 236.887 488.235 236.018 486.881 234.474C485.527 232.929 484.766 230.835 484.766 228.652C484.766 226.469 485.527 224.375 486.881 222.83C488.235 221.286 490.072 220.417 491.988 220.415Z" fill="black"/>
<path opacity="0.1" d="M515.779 242.713C514.562 243.758 513.08 244.324 511.557 244.325H503.098C501.575 244.324 500.093 243.758 498.876 242.713H515.779Z" fill="black"/>
<path d="M570.402 302.396C570.402 302.396 572.224 308.379 573.892 306.786L572.562 298.965L570.402 302.396Z" fill="#FBBEBE"/>
<path d="M792.163 484.86C793.86 485.563 795.678 485.807 797.472 485.573C799.266 485.34 800.989 484.634 802.503 483.513C804.017 482.391 805.282 480.884 806.198 479.11C807.114 477.337 807.656 475.345 807.781 473.292C807.906 471.239 807.611 469.181 806.919 467.28C806.227 465.38 805.157 463.688 803.793 462.339C802.429 460.989 800.809 460.02 799.061 459.505C797.312 458.991 795.482 458.947 793.716 459.376L794.008 466.215L791.168 460.354C788.381 461.846 786.228 464.538 785.182 467.838C784.81 468.994 784.584 470.204 784.511 471.433C784.332 474.314 784.982 477.184 786.362 479.607C787.743 482.03 789.78 483.874 792.163 484.86V484.86Z" fill="#57B894"/>
<path d="M806.214 564.183C805.212 558.366 809.555 553.21 813.846 549.858C818.137 546.506 823.15 543.213 824.614 537.525C826.718 529.351 820.451 521.864 815.573 515.408C811.954 510.617 808.846 505.354 806.315 499.73C805.3 497.475 804.367 495.117 804.1 492.601C803.715 488.977 804.737 485.372 805.766 481.915C809.195 470.401 812.861 458.984 816.765 447.663" stroke="#3F3D56" stroke-miterlimit="10"/>
<path d="M792.643 483.099C794.34 483.802 796.158 484.046 797.952 483.813C799.747 483.579 801.469 482.873 802.983 481.752C804.497 480.63 805.762 479.123 806.678 477.35C807.594 475.576 808.136 473.584 808.261 471.531C808.386 469.478 808.091 467.42 807.399 465.52C806.707 463.619 805.637 461.927 804.273 460.578C802.91 459.229 801.29 458.259 799.541 457.745C797.792 457.231 795.962 457.186 794.196 457.615L794.488 464.454L791.648 458.593C788.861 460.085 786.708 462.777 785.662 466.077C785.29 467.233 785.065 468.444 784.991 469.672C784.812 472.554 785.462 475.423 786.843 477.846C788.223 480.269 790.26 482.113 792.643 483.099V483.099Z" stroke="#3F3D56" stroke-miterlimit="10"/>
<path d="M804.789 445.301C805.455 443.207 806.573 441.337 808.04 439.865C809.507 438.392 811.275 437.364 813.182 436.875L814.142 443.377L815.923 436.548C818.394 436.59 820.79 437.525 822.765 439.22C824.739 440.914 826.19 443.28 826.908 445.975C827.625 448.671 827.573 451.556 826.757 454.215C825.942 456.874 824.406 459.169 822.371 460.768C820.337 462.368 817.909 463.189 815.438 463.114C812.967 463.039 810.581 462.07 808.624 460.349C806.667 458.628 805.241 456.243 804.552 453.538C803.863 450.833 803.946 447.948 804.789 445.301H804.789Z" fill="#57B894"/>
<path d="M805.429 442.953C806.095 440.859 807.213 438.989 808.68 437.517C810.147 436.044 811.915 435.016 813.823 434.527L814.783 441.029L816.563 434.2C819.035 434.242 821.431 435.178 823.405 436.872C825.38 438.567 826.83 440.932 827.548 443.628C828.266 446.323 828.213 449.208 827.398 451.867C826.582 454.526 825.046 456.821 823.012 458.421C820.977 460.02 818.549 460.842 816.078 460.766C813.607 460.691 811.221 459.723 809.264 458.001C807.308 456.28 805.882 453.895 805.192 451.19C804.503 448.485 804.586 445.601 805.429 442.953H805.429Z" stroke="#3F3D56" stroke-miterlimit="10"/>
<path d="M813.526 515.54C816.218 516.653 819.175 516.598 821.834 515.386C824.492 514.174 826.666 511.89 827.942 508.968C829.217 506.047 829.505 502.693 828.749 499.546C827.994 496.399 826.249 493.678 823.847 491.903L822.479 497.151L821.509 490.572C821.499 490.567 821.489 490.563 821.479 490.559C820.039 489.963 818.511 489.696 816.98 489.773C815.45 489.851 813.948 490.271 812.56 491.01C811.172 491.748 809.925 492.792 808.891 494.08C807.858 495.368 807.057 496.875 806.534 498.516C806.012 500.157 805.778 501.899 805.847 503.643C805.916 505.387 806.285 507.098 806.934 508.679C807.584 510.26 808.5 511.679 809.631 512.857C810.762 514.034 812.086 514.946 813.526 515.54H813.526Z" fill="#57B894"/>
<path d="M814.081 513.162C816.773 514.275 819.73 514.22 822.388 513.008C825.047 511.796 827.221 509.512 828.497 506.59C829.772 503.669 830.06 500.315 829.304 497.168C828.549 494.021 826.804 491.3 824.401 489.525L823.034 494.773L822.064 488.194C822.054 488.189 822.044 488.185 822.034 488.181C820.594 487.585 819.065 487.318 817.535 487.395C816.005 487.473 814.502 487.893 813.115 488.632C811.727 489.37 810.48 490.414 809.446 491.702C808.412 492.99 807.611 494.497 807.089 496.138C806.567 497.779 806.333 499.521 806.402 501.265C806.47 503.009 806.84 504.72 807.489 506.301C808.139 507.882 809.055 509.301 810.186 510.479C811.317 511.656 812.64 512.568 814.081 513.162H814.081Z" stroke="#3F3D56" stroke-miterlimit="10"/>
<path d="M801.386 537.607C801.848 540.607 803.203 543.336 805.221 545.334C807.24 547.332 809.8 548.478 812.473 548.581C815.145 548.683 817.767 547.736 819.899 545.897C822.031 544.058 823.544 541.44 824.183 538.481C824.822 535.523 824.548 532.404 823.409 529.648C822.269 526.891 820.332 524.666 817.923 523.343C815.514 522.021 812.78 521.683 810.178 522.385C807.576 523.088 805.265 524.788 803.633 527.202L808.828 536.112L801.729 531.383C801.179 533.396 801.061 535.53 801.386 537.607V537.607Z" fill="#57B894"/>
<path d="M801.866 535.846C802.329 538.847 803.683 541.575 805.702 543.573C807.72 545.571 810.281 546.717 812.953 546.82C815.626 546.923 818.248 545.975 820.38 544.136C822.512 542.297 824.024 539.679 824.663 536.721C825.302 533.762 825.029 530.643 823.889 527.887C822.749 525.131 820.813 522.905 818.404 521.582C815.995 520.26 813.26 519.922 810.658 520.624C808.056 521.327 805.745 523.027 804.113 525.441L809.309 534.351L802.21 529.622C801.659 531.635 801.541 533.77 801.866 535.846V535.846Z" stroke="#3F3D56" stroke-miterlimit="10"/>
<path d="M233.047 517.228C234.162 517.69 235.356 517.851 236.535 517.697C237.714 517.544 238.846 517.08 239.841 516.343C240.835 515.606 241.667 514.616 242.268 513.451C242.87 512.286 243.226 510.977 243.308 509.628C243.391 508.28 243.197 506.927 242.742 505.679C242.287 504.43 241.584 503.318 240.688 502.432C239.792 501.545 238.728 500.908 237.579 500.57C236.43 500.232 235.228 500.203 234.067 500.485L234.259 504.979L232.393 501.128C230.562 502.108 229.148 503.877 228.46 506.045C228.216 506.805 228.068 507.6 228.02 508.407C227.902 510.3 228.329 512.185 229.236 513.777C230.143 515.369 231.481 516.581 233.047 517.228V517.228Z" fill="#57B894"/>
<path d="M242.279 569.345C241.62 565.523 244.474 562.136 247.293 559.933C250.112 557.731 253.406 555.568 254.368 551.831C255.75 546.46 251.633 541.541 248.428 537.299C246.05 534.152 244.008 530.694 242.345 526.998C241.622 525.547 241.129 523.961 240.89 522.314C240.637 519.934 241.309 517.565 241.985 515.294C244.238 507.729 246.646 500.227 249.211 492.789" stroke="#3F3D56" stroke-miterlimit="10"/>
<path d="M233.363 516.072C234.478 516.534 235.672 516.694 236.851 516.54C238.03 516.387 239.161 515.923 240.156 515.186C241.151 514.45 241.982 513.459 242.584 512.294C243.186 511.129 243.542 509.82 243.624 508.471C243.706 507.123 243.512 505.771 243.058 504.522C242.603 503.273 241.9 502.161 241.004 501.275C240.108 500.388 239.044 499.751 237.895 499.413C236.746 499.076 235.543 499.046 234.383 499.328L234.575 503.822L232.709 499.971C230.878 500.951 229.463 502.72 228.776 504.888C228.532 505.648 228.383 506.443 228.335 507.25C228.217 509.143 228.644 511.029 229.552 512.62C230.459 514.212 231.797 515.424 233.363 516.072V516.072Z" stroke="#3F3D56" stroke-miterlimit="10"/>
<path d="M241.342 491.237C241.78 489.862 242.515 488.633 243.478 487.666C244.442 486.698 245.604 486.023 246.857 485.701L247.488 489.973L248.658 485.487C250.282 485.514 251.856 486.129 253.153 487.242C254.45 488.356 255.404 489.91 255.875 491.681C256.346 493.452 256.312 495.347 255.776 497.094C255.24 498.841 254.231 500.349 252.895 501.4C251.558 502.451 249.963 502.99 248.339 502.941C246.716 502.891 245.148 502.255 243.862 501.124C242.577 499.994 241.64 498.426 241.187 496.649C240.734 494.872 240.789 492.977 241.342 491.237V491.237Z" fill="#57B894"/>
<path d="M241.763 489.695C242.201 488.319 242.935 487.091 243.899 486.123C244.863 485.156 246.025 484.48 247.278 484.159L247.909 488.431L249.078 483.944C250.702 483.972 252.276 484.586 253.574 485.7C254.871 486.813 255.824 488.367 256.296 490.138C256.767 491.909 256.733 493.805 256.197 495.552C255.661 497.299 254.652 498.807 253.315 499.857C251.979 500.908 250.383 501.448 248.76 501.398C247.136 501.349 245.569 500.713 244.283 499.582C242.997 498.451 242.061 496.884 241.608 495.107C241.155 493.33 241.209 491.434 241.763 489.695V489.695Z" stroke="#3F3D56" stroke-miterlimit="10"/>
<path d="M247.083 537.386C248.852 538.117 250.794 538.081 252.541 537.285C254.288 536.488 255.716 534.988 256.554 533.068C257.392 531.149 257.581 528.945 257.085 526.878C256.589 524.81 255.442 523.022 253.864 521.856L252.965 525.304L252.328 520.982C252.321 520.978 252.315 520.975 252.308 520.973C251.362 520.581 250.358 520.406 249.352 520.456C248.347 520.507 247.359 520.783 246.447 521.268C245.535 521.754 244.716 522.439 244.037 523.285C243.358 524.132 242.831 525.122 242.488 526.2C242.145 527.279 241.991 528.423 242.036 529.569C242.082 530.715 242.324 531.839 242.751 532.878C243.178 533.917 243.78 534.85 244.523 535.623C245.267 536.397 246.136 536.996 247.083 537.386V537.386Z" fill="#57B894"/>
<path d="M247.448 535.824C249.216 536.555 251.159 536.519 252.906 535.722C254.652 534.926 256.081 533.425 256.919 531.506C257.757 529.587 257.946 527.383 257.45 525.315C256.953 523.247 255.807 521.46 254.228 520.294L253.33 523.741L252.692 519.419C252.686 519.416 252.68 519.413 252.673 519.411C251.727 519.02 250.723 518.845 249.718 518.896C248.713 518.947 247.726 519.224 246.815 519.709C244.974 520.69 243.551 522.464 242.858 524.64C242.165 526.817 242.259 529.218 243.12 531.315C243.981 533.412 245.537 535.034 247.448 535.824V535.824Z" stroke="#3F3D56" stroke-miterlimit="10"/>
<path d="M239.107 551.884C239.411 553.856 240.3 555.648 241.627 556.961C242.953 558.274 244.635 559.027 246.391 559.094C248.147 559.162 249.87 558.539 251.27 557.331C252.671 556.123 253.665 554.403 254.085 552.459C254.504 550.515 254.325 548.466 253.576 546.655C252.827 544.844 251.555 543.382 249.972 542.513C248.389 541.644 246.593 541.422 244.883 541.883C243.174 542.345 241.655 543.462 240.583 545.048L243.997 550.902L239.332 547.795C238.971 549.118 238.893 550.52 239.107 551.884V551.884Z" fill="#57B894"/>
<path d="M239.422 550.727C239.726 552.699 240.616 554.491 241.942 555.804C243.269 557.117 244.951 557.87 246.707 557.937C248.462 558.005 250.185 557.382 251.586 556.174C252.987 554.966 253.98 553.246 254.4 551.302C254.82 549.358 254.641 547.309 253.892 545.498C253.143 543.687 251.87 542.225 250.288 541.356C248.705 540.487 246.908 540.265 245.199 540.726C243.489 541.188 241.971 542.305 240.899 543.891L244.312 549.745L239.648 546.638C239.286 547.961 239.209 549.363 239.422 550.727V550.727Z" stroke="#3F3D56" stroke-miterlimit="10"/>
<path d="M497.482 434.784C502.743 434.784 507.008 428.495 507.008 420.738C507.008 412.981 502.743 406.692 497.482 406.692C492.221 406.692 487.957 412.981 487.957 420.738C487.957 428.495 492.221 434.784 497.482 434.784Z" fill="#2F2E41"/>
<path d="M549.311 435.103C554.572 435.103 558.837 428.815 558.837 421.057C558.837 413.3 554.572 407.011 549.311 407.011C544.051 407.011 539.786 413.3 539.786 421.057C539.786 428.815 544.051 435.103 549.311 435.103Z" fill="#2F2E41"/>
<path d="M542.027 462.556C542.027 468.902 534.25 474.048 524.658 474.048C515.065 474.048 507.288 468.902 507.288 462.556C507.288 457.059 513.121 452.462 520.915 451.339C522.155 451.152 523.406 451.061 524.658 451.064C526.755 451.057 528.846 451.313 530.894 451.83C537.405 453.484 542.027 457.666 542.027 462.556Z" fill="#2F2E41"/>
<path d="M499.723 431.592C504.984 431.592 509.249 425.303 509.249 417.546C509.249 409.789 504.984 403.5 499.723 403.5C494.463 403.5 490.198 409.789 490.198 417.546C490.198 425.303 494.463 431.592 499.723 431.592Z" stroke="#3F3D56" stroke-miterlimit="10"/>
<path d="M551.553 431.911C556.813 431.911 561.078 425.622 561.078 417.865C561.078 410.108 556.813 403.819 551.553 403.819C546.292 403.819 542.027 410.108 542.027 417.865C542.027 425.622 546.292 431.911 551.553 431.911Z" stroke="#3F3D56" stroke-miterlimit="10"/>
<path d="M526.899 470.856C536.492 470.856 544.269 465.711 544.269 459.364C544.269 453.017 536.492 447.872 526.899 447.872C517.306 447.872 509.529 453.017 509.529 459.364C509.529 465.711 517.306 470.856 526.899 470.856Z" stroke="#3F3D56" stroke-miterlimit="10"/>
<path d="M531.101 452.788C531.106 453.591 530.841 454.365 530.362 454.954C530.135 455.235 529.86 455.461 529.553 455.615C529.247 455.77 528.915 455.851 528.58 455.853H522.977C522.286 455.825 521.633 455.487 521.161 454.913C520.688 454.339 520.435 453.575 520.455 452.788C520.452 452.166 520.612 451.556 520.915 451.038C522.155 450.839 523.405 450.741 524.658 450.745C526.757 450.737 528.851 451.011 530.894 451.562C531.032 451.952 531.103 452.368 531.101 452.788V452.788Z" fill="white"/>
<path d="M499.723 416.907C501.271 416.907 502.525 415.478 502.525 413.715C502.525 411.952 501.271 410.523 499.723 410.523C498.176 410.523 496.922 411.952 496.922 413.715C496.922 415.478 498.176 416.907 499.723 416.907Z" fill="white"/>
<path d="M551.833 416.907C553.38 416.907 554.634 415.478 554.634 413.715C554.634 411.952 553.38 410.523 551.833 410.523C550.286 410.523 549.031 411.952 549.031 413.715C549.031 415.478 550.286 416.907 551.833 416.907Z" fill="white"/>
<path opacity="0.3" d="M554.634 446.914C556.182 446.914 557.436 445.485 557.436 443.722C557.436 441.959 556.182 440.53 554.634 440.53C553.087 440.53 551.833 441.959 551.833 443.722C551.833 445.485 553.087 446.914 554.634 446.914Z" fill="#10D574"/>
<path opacity="0.3" d="M486.276 446.914C487.823 446.914 489.077 445.485 489.077 443.722C489.077 441.959 487.823 440.53 486.276 440.53C484.729 440.53 483.474 441.959 483.474 443.722C483.474 445.485 484.729 446.914 486.276 446.914Z" fill="#10D574"/>
</g>
<defs>
<linearGradient id="paint0_linear" x1="55.8311" y1="155.439" x2="1033.83" y2="745.439" gradientUnits="userSpaceOnUse">
<stop stop-color="#50E3C2"/>
<stop offset="1" stop-color="#10D574"/>
</linearGradient>
<clipPath id="clip0">
<rect width="602" height="373" fill="white" transform="translate(228 217)"/>
</clipPath>
</defs>
</svg>
