<svg width="662" height="692" viewBox="0 0 662 692" fill="none" xmlns="http://www.w3.org/2000/svg">
<path d="M182.574 0C146.241 18.8333 83.4744 47.7 103.074 98.5C127.574 162 218.074 201.5 153.074 299C88.0745 396.5 -48.4262 396.827 17.5744 517.5C63.2437 601 17.5744 691.5 17.5744 691.5C73.5744 691.5 169.073 692.327 234.074 691.5H640.575C652.173 691.5 661.575 682.098 661.575 670.5V21C661.575 9.40201 652.173 0 640.575 0H182.574Z" fill="url(#paint0_linear)"/>
<path d="M214 264H507V453C507 454.657 505.657 456 504 456H217C215.343 456 214 454.657 214 453V264Z" fill="white"/>
<path d="M214 250.25C214 248.593 215.343 247.25 217 247.25H503.5C505.157 247.25 506.5 248.593 506.5 250.25V263.25H214V250.25Z" fill="#E6E6E6"/>
<path d="M187.713 612.781C193.005 608.109 196.22 600.728 195.377 593.543C194.534 586.357 189.312 579.752 182.539 578.226C175.765 576.7 168.044 580.924 165.987 587.837C164.855 574.509 163.55 560.624 156.768 549.274C150.627 538.998 139.99 531.644 128.463 530.329C116.935 529.013 104.798 533.982 97.609 543.487C90.4197 552.993 88.6594 566.812 93.6946 577.726C97.4039 585.765 104.238 591.748 111.398 596.616C134.534 612.212 162.284 618.554 189.54 614.476L187.713 612.781Z" fill="#F2F2F2"/>
<path d="M109.008 534.257C118.52 542.351 127.246 551.404 135.06 561.284C142.875 571.154 149.756 581.792 155.605 593.05C158.874 599.366 161.811 605.862 164.402 612.512C164.931 613.865 162.828 614.454 162.306 613.116C157.716 601.393 152.037 590.167 145.351 579.601C138.697 569.074 131.082 559.245 122.612 550.254C117.821 545.171 112.767 540.367 107.471 535.863C106.385 534.94 107.932 533.341 109.008 534.257V534.257Z" fill="white"/>
<path d="M503.546 246H216.923C215.831 246.001 214.784 246.455 214.011 247.262C213.239 248.069 212.805 249.163 212.803 250.304V453.215C212.805 454.356 213.239 455.45 214.011 456.257C214.784 457.064 215.831 457.518 216.923 457.519H503.546C504.638 457.518 505.685 457.064 506.458 456.257C507.23 455.45 507.664 454.356 507.666 453.215V250.304C507.664 249.163 507.23 248.069 506.458 247.262C505.685 246.455 504.638 246.001 503.546 246ZM506.488 453.215C506.488 454.03 506.178 454.812 505.626 455.389C505.074 455.965 504.326 456.289 503.546 456.29H216.923C216.143 456.289 215.395 455.965 214.843 455.389C214.291 454.812 213.981 454.03 213.981 453.215V250.304C213.981 249.489 214.291 248.707 214.843 248.131C215.395 247.554 216.143 247.23 216.923 247.23H503.546C504.326 247.23 505.074 247.554 505.626 248.131C506.178 248.707 506.488 249.489 506.488 250.304V453.215Z" fill="#2A292B"/>
<path d="M507.077 263.241H213.392V264.471H507.077V263.241Z" fill="#3F3D56"/>
<path d="M223.397 258.913C225.348 258.913 226.929 257.261 226.929 255.223C226.929 253.186 225.348 251.534 223.397 251.534C221.447 251.534 219.866 253.186 219.866 255.223C219.866 257.261 221.447 258.913 223.397 258.913Z" fill="#3F3D56"/>
<path d="M233.55 258.913C235.5 258.913 237.081 257.261 237.081 255.223C237.081 253.186 235.5 251.534 233.55 251.534C231.599 251.534 230.018 253.186 230.018 255.223C230.018 257.261 231.599 258.913 233.55 258.913Z" fill="#3F3D56"/>
<path d="M243.702 258.913C245.652 258.913 247.233 257.261 247.233 255.223C247.233 253.186 245.652 251.534 243.702 251.534C241.752 251.534 240.171 253.186 240.171 255.223C240.171 257.261 241.752 258.913 243.702 258.913Z" fill="#3F3D56"/>
<path d="M384.954 291.809H335.516C334.423 291.809 333.375 291.355 332.602 290.548C331.83 289.741 331.396 288.646 331.396 287.505C331.396 286.363 331.83 285.268 332.602 284.461C333.375 283.654 334.423 283.2 335.516 283.2H384.954C386.046 283.2 387.094 283.654 387.867 284.461C388.639 285.268 389.073 286.363 389.073 287.505C389.073 288.646 388.639 289.741 387.867 290.548C387.094 291.355 386.046 291.809 384.954 291.809V291.809Z" fill="#30363DCCC"/>
<path d="M418.795 312.715H301.674C300.581 312.715 299.534 312.261 298.761 311.454C297.988 310.647 297.554 309.552 297.554 308.411C297.554 307.269 297.988 306.174 298.761 305.367C299.534 304.56 300.581 304.106 301.674 304.106H418.795C419.888 304.106 420.936 304.56 421.708 305.367C422.481 306.174 422.915 307.269 422.915 308.411C422.915 309.552 422.481 310.647 421.708 311.454C420.936 312.261 419.888 312.715 418.795 312.715Z" fill="#30363DCCC"/>
<path d="M453.92 441.195C449.481 441.195 445.141 439.819 441.45 437.243C437.759 434.666 434.882 431.004 433.183 426.719C431.484 422.434 431.039 417.718 431.905 413.17C432.772 408.621 434.909 404.442 438.048 401.163C441.188 397.883 445.187 395.65 449.541 394.745C453.895 393.84 458.408 394.304 462.51 396.079C466.611 397.854 470.117 400.86 472.583 404.716C475.05 408.573 476.366 413.106 476.366 417.745C476.359 423.962 473.992 429.922 469.784 434.319C465.576 438.715 459.871 441.188 453.92 441.195V441.195ZM453.92 395.911C449.787 395.911 445.746 397.192 442.31 399.591C438.873 401.99 436.195 405.4 434.613 409.389C433.031 413.379 432.617 417.769 433.424 422.004C434.23 426.239 436.22 430.129 439.143 433.183C442.066 436.236 445.789 438.316 449.843 439.158C453.897 440 458.099 439.568 461.917 437.916C465.736 436.263 469 433.465 471.296 429.874C473.592 426.284 474.818 422.063 474.818 417.745C474.812 411.956 472.608 406.407 468.69 402.313C464.772 398.22 459.461 395.918 453.92 395.911V395.911Z" fill="#3F3D56"/>
<path d="M265.74 378.389C261.301 378.389 256.961 377.014 253.27 374.437C249.579 371.86 246.702 368.198 245.003 363.913C243.304 359.628 242.859 354.913 243.726 350.364C244.592 345.815 246.729 341.636 249.869 338.357C253.008 335.077 257.007 332.844 261.361 331.939C265.715 331.034 270.228 331.499 274.33 333.273C278.431 335.048 281.937 338.054 284.403 341.91C286.87 345.767 288.186 350.301 288.186 354.939C288.179 361.156 285.813 367.117 281.605 371.513C277.397 375.909 271.691 378.382 265.74 378.389V378.389ZM265.74 333.106C261.607 333.106 257.567 334.386 254.13 336.785C250.693 339.184 248.015 342.594 246.433 346.584C244.851 350.573 244.437 354.963 245.244 359.198C246.05 363.433 248.041 367.324 250.963 370.377C253.886 373.43 257.609 375.51 261.663 376.352C265.717 377.195 269.919 376.762 273.738 375.11C277.556 373.457 280.82 370.659 283.116 367.069C285.413 363.478 286.638 359.257 286.638 354.939C286.632 349.15 284.428 343.601 280.51 339.508C276.593 335.415 271.281 333.112 265.74 333.106V333.106Z" fill="#3F3D56"/>
<path d="M274.459 367.37C273.871 367.37 273.308 367.126 272.892 366.693C272.476 366.259 272.242 365.67 272.241 365.056V351.899C272.241 351.285 272.475 350.697 272.89 350.264C273.305 349.83 273.868 349.586 274.455 349.585H274.459C275.046 349.586 275.609 349.83 276.024 350.264C276.439 350.697 276.673 351.285 276.674 351.899V365.056C276.673 365.67 276.439 366.258 276.024 366.691C275.609 367.125 275.046 367.369 274.459 367.37ZM268.677 367.37C268.384 367.373 268.093 367.315 267.821 367.201C267.55 367.086 267.302 366.916 267.093 366.701C266.885 366.486 266.719 366.23 266.605 365.948C266.491 365.666 266.432 365.363 266.431 365.056V357.969C266.432 357.355 266.665 356.767 267.08 356.334C267.495 355.9 268.058 355.656 268.645 355.655H268.677C269.264 355.656 269.827 355.9 270.242 356.334C270.657 356.767 270.891 357.355 270.891 357.969V365.056C270.891 365.67 270.657 366.258 270.242 366.691C269.827 367.125 269.264 367.369 268.677 367.37V367.37ZM262.839 367.37C262.252 367.37 261.688 367.126 261.272 366.693C260.856 366.259 260.622 365.67 260.621 365.056V344.821C260.622 344.208 260.855 343.62 261.27 343.186C261.685 342.752 262.248 342.508 262.835 342.508H262.839C263.426 342.508 263.989 342.752 264.404 343.186C264.82 343.62 265.053 344.208 265.054 344.821V365.056C265.053 365.67 264.82 366.258 264.404 366.691C263.989 367.125 263.426 367.369 262.839 367.37V367.37ZM257.024 367.37C256.732 367.37 256.444 367.311 256.175 367.194C255.906 367.078 255.662 366.908 255.456 366.693C255.25 366.477 255.087 366.222 254.975 365.941C254.864 365.66 254.807 365.359 254.807 365.055L254.809 362.015C254.81 361.402 255.043 360.814 255.459 360.38C255.874 359.946 256.437 359.703 257.025 359.703C257.612 359.703 258.175 359.947 258.59 360.381C259.005 360.815 259.238 361.404 259.238 362.017V365.056C259.237 365.67 259.004 366.258 258.589 366.691C258.174 367.125 257.611 367.369 257.024 367.37V367.37Z" fill="#10D574"/>
<path d="M606.24 614.504C601.801 614.504 597.461 613.128 593.77 610.552C590.079 607.975 587.202 604.312 585.503 600.027C583.804 595.742 583.359 591.027 584.226 586.478C585.092 581.929 587.229 577.751 590.369 574.471C593.508 571.192 597.507 568.958 601.861 568.054C606.215 567.149 610.729 567.613 614.83 569.388C618.931 571.163 622.437 574.169 624.903 578.025C627.37 581.881 628.686 586.415 628.686 591.053C628.68 597.271 626.313 603.231 622.105 607.627C617.897 612.024 612.191 614.497 606.24 614.504ZM606.24 569.22C602.107 569.22 598.067 570.501 594.63 572.9C591.193 575.299 588.515 578.709 586.933 582.698C585.351 586.688 584.937 591.078 585.744 595.313C586.55 599.548 588.541 603.438 591.463 606.492C594.386 609.545 598.109 611.624 602.163 612.467C606.217 613.309 610.419 612.877 614.238 611.224C618.056 609.572 621.32 606.774 623.616 603.183C625.913 599.593 627.138 595.372 627.138 591.053C627.132 585.265 624.928 579.715 621.01 575.622C617.093 571.529 611.781 569.227 606.24 569.22V569.22Z" fill="#3F3D56"/>
<path d="M612.428 586.984L608.052 593.974C608.403 594.42 608.594 594.98 608.592 595.558C608.591 596.224 608.337 596.863 607.886 597.334C607.434 597.805 606.823 598.069 606.185 598.069C605.547 598.069 604.935 597.805 604.484 597.334C604.032 596.863 603.778 596.224 603.777 595.558C603.778 595.396 603.792 595.234 603.819 595.075L600.931 593.318C600.558 593.695 600.078 593.935 599.563 594.003C599.048 594.071 598.526 593.963 598.075 593.694L595.002 596.702V599.7C595.003 600.293 595.229 600.861 595.63 601.281C596.031 601.701 596.574 601.938 597.142 601.94H615.334C615.902 601.938 616.446 601.701 616.848 601.281C617.249 600.862 617.476 600.293 617.479 599.7V588.582L614.54 586.539C614.244 586.779 613.9 586.944 613.534 587.021C613.167 587.098 612.789 587.085 612.428 586.984H612.428Z" fill="#10D574"/>
<path d="M599.263 589.011C599.901 589.011 600.513 589.276 600.965 589.748C601.416 590.22 601.67 590.859 601.67 591.526V591.526V591.85L604.683 593.612C605.113 593.244 605.652 593.042 606.208 593.042C606.383 593.044 606.558 593.063 606.73 593.1L611.115 586.008C610.896 585.687 610.753 585.316 610.697 584.925C610.642 584.535 610.675 584.137 610.794 583.762C610.914 583.388 611.116 583.048 611.385 582.771C611.654 582.494 611.982 582.287 612.342 582.167C612.702 582.048 613.084 582.018 613.456 582.082C613.829 582.146 614.182 582.3 614.487 582.534C614.792 582.767 615.04 583.072 615.21 583.424C615.381 583.776 615.469 584.165 615.468 584.56C615.468 584.76 615.447 584.959 615.404 585.154L617.479 586.602V582.407C617.476 581.813 617.249 581.245 616.848 580.826C616.446 580.406 615.902 580.169 615.334 580.167H597.141C596.574 580.169 596.03 580.406 595.63 580.826C595.229 581.246 595.003 581.814 595.002 582.407V594.423L597.007 592.415C596.873 592.035 596.829 591.627 596.878 591.226C596.928 590.825 597.069 590.442 597.291 590.11C597.512 589.778 597.807 589.507 598.15 589.32C598.494 589.133 598.875 589.035 599.263 589.035V589.011Z" fill="#10D574"/>
<path d="M361.125 378.389C356.685 378.389 352.346 377.014 348.654 374.437C344.963 371.86 342.086 368.198 340.387 363.913C338.688 359.628 338.244 354.913 339.11 350.364C339.976 345.815 342.114 341.636 345.253 338.357C348.392 335.077 352.392 332.844 356.746 331.939C361.1 331.034 365.613 331.499 369.714 333.273C373.816 335.048 377.321 338.054 379.788 341.91C382.254 345.767 383.571 350.301 383.571 354.939C383.564 361.156 381.197 367.117 376.989 371.513C372.781 375.909 367.076 378.382 361.125 378.389V378.389ZM361.125 333.106C356.991 333.106 352.951 334.386 349.514 336.785C346.078 339.184 343.399 342.594 341.817 346.584C340.236 350.573 339.822 354.963 340.628 359.198C341.435 363.433 343.425 367.324 346.348 370.377C349.27 373.43 352.994 375.51 357.048 376.352C361.102 377.195 365.303 376.762 369.122 375.11C372.941 373.457 376.204 370.659 378.501 367.069C380.797 363.478 382.023 359.257 382.023 354.939C382.016 349.15 379.813 343.601 375.895 339.508C371.977 335.415 366.665 333.112 361.125 333.106V333.106Z" fill="#3F3D56"/>
<path d="M349.2 363.439C348.877 363.439 348.562 363.339 348.293 363.152C348.025 362.965 347.816 362.699 347.692 362.388C347.569 362.076 347.536 361.734 347.599 361.403C347.661 361.073 347.816 360.769 348.044 360.53L356.338 351.841C356.467 351.705 356.62 351.597 356.79 351.524C356.959 351.45 357.14 351.413 357.324 351.413H357.325C357.508 351.413 357.689 351.45 357.858 351.523C358.027 351.596 358.181 351.704 358.31 351.84L362.157 355.858C362.234 355.94 362.326 356.004 362.428 356.048C362.529 356.092 362.638 356.114 362.748 356.114H362.749C362.858 356.114 362.967 356.092 363.069 356.048C363.17 356.004 363.262 355.939 363.34 355.858L368.77 350.175C368.796 350.148 368.817 350.116 368.831 350.08C368.845 350.045 368.852 350.007 368.852 349.969C368.852 349.931 368.845 349.893 368.831 349.857C368.817 349.822 368.796 349.79 368.77 349.763L367.013 347.93C366.896 347.808 366.816 347.653 366.784 347.483C366.751 347.313 366.768 347.138 366.831 346.978C366.894 346.818 367.001 346.682 367.139 346.585C367.277 346.489 367.438 346.438 367.604 346.438H373.845C374.066 346.438 374.279 346.531 374.436 346.694C374.592 346.858 374.681 347.08 374.681 347.312V353.828C374.681 354.001 374.632 354.17 374.54 354.313C374.448 354.457 374.318 354.569 374.165 354.635C374.012 354.701 373.844 354.719 373.681 354.685C373.519 354.651 373.37 354.568 373.253 354.446L371.493 352.607C371.468 352.58 371.437 352.559 371.403 352.544C371.369 352.53 371.333 352.522 371.296 352.522C371.26 352.522 371.224 352.53 371.19 352.544C371.156 352.559 371.125 352.58 371.099 352.607L363.746 360.285C363.616 360.42 363.463 360.528 363.294 360.601C363.125 360.674 362.943 360.712 362.76 360.711H362.76C362.577 360.712 362.395 360.674 362.226 360.601C362.057 360.528 361.903 360.42 361.774 360.285L357.926 356.264C357.767 356.105 357.555 356.017 357.335 356.017C357.114 356.017 356.903 356.105 356.743 356.264L350.354 362.94C350.202 363.098 350.023 363.224 349.825 363.31C349.626 363.396 349.414 363.44 349.2 363.439V363.439Z" fill="#10D574"/>
<path d="M361.125 439.877C356.685 439.877 352.346 438.502 348.654 435.925C344.963 433.348 342.086 429.686 340.387 425.401C338.688 421.116 338.244 416.401 339.11 411.852C339.976 407.303 342.114 403.125 345.253 399.845C348.392 396.565 352.392 394.332 356.746 393.427C361.1 392.522 365.613 392.987 369.714 394.762C373.816 396.537 377.321 399.542 379.788 403.399C382.254 407.255 383.571 411.789 383.571 416.427C383.564 422.644 381.197 428.605 376.989 433.001C372.781 437.397 367.076 439.87 361.125 439.877V439.877Z" fill="#E6E6E6"/>
<path d="M454.115 376.544C449.676 376.544 445.336 375.169 441.645 372.592C437.954 370.016 435.077 366.353 433.378 362.068C431.679 357.783 431.234 353.068 432.1 348.519C432.967 343.97 435.104 339.792 438.243 336.512C441.383 333.233 445.382 330.999 449.736 330.094C454.09 329.19 458.603 329.654 462.705 331.429C466.806 333.204 470.312 336.209 472.778 340.066C475.245 343.922 476.561 348.456 476.561 353.094C476.554 359.311 474.187 365.272 469.979 369.668C465.771 374.064 460.066 376.537 454.115 376.544V376.544Z" fill="#E6E6E6"/>
<path d="M265.741 392.976C261.888 392.981 258.101 394.019 254.741 395.989C259.596 396.437 264.149 398.644 267.612 402.228C271.075 405.812 273.23 410.547 273.705 415.616C274.179 420.684 272.944 425.766 270.212 429.983C267.48 434.201 263.423 437.288 258.743 438.711C259.62 439.015 260.514 439.259 261.421 439.443C262.844 439.735 264.291 439.881 265.741 439.879C271.694 439.879 277.404 437.409 281.613 433.011C285.823 428.613 288.188 422.648 288.188 416.428C288.188 410.208 285.823 404.243 281.613 399.845C277.404 395.447 271.694 392.976 265.741 392.976V392.976Z" fill="#E6E6E6"/>
<path d="M257.225 394.735C255.802 394.437 254.355 394.289 252.905 394.292C247.133 394.286 241.581 396.6 237.398 400.755C233.215 404.909 230.723 410.586 230.438 416.609C230.153 422.631 232.097 428.537 235.867 433.103C239.637 437.668 244.944 440.543 250.688 441.132C256.432 441.721 262.172 439.978 266.719 436.264C271.267 432.551 274.272 427.152 275.112 421.187C275.953 415.221 274.564 409.147 271.234 404.222C267.904 399.297 262.887 395.9 257.225 394.735V394.735ZM258.743 438.711C255.869 439.585 252.848 439.803 249.886 439.351C246.923 438.899 244.088 437.787 241.573 436.091C239.058 434.396 236.92 432.155 235.306 429.521C233.691 426.887 232.637 423.922 232.214 420.825C231.792 417.729 232.011 414.574 232.857 411.574C233.703 408.573 235.157 405.798 237.118 403.436C239.08 401.073 241.505 399.178 244.229 397.88C246.952 396.581 249.911 395.909 252.905 395.909C253.523 395.909 254.135 395.94 254.741 395.989C259.596 396.437 264.149 398.644 267.612 402.228C271.075 405.812 273.23 410.547 273.705 415.616C274.179 420.684 272.944 425.766 270.212 429.983C267.48 434.201 263.423 437.288 258.743 438.711V438.711Z" fill="#3F3D56"/>
<path d="M265.974 413.616C265.232 410.218 263.23 407.267 260.407 405.411C257.585 403.554 254.172 402.943 250.919 403.713C250.602 403.789 250.273 403.882 249.983 403.975L252.982 417.746L266.164 414.618C266.108 414.297 266.046 413.948 265.974 413.616Z" fill="#10D574"/>
<path d="M264.697 417.035L251.51 420.163L248.516 406.392C246.217 407.136 244.17 408.552 242.618 410.474C241.066 412.395 240.074 414.742 239.759 417.234C239.445 419.727 239.821 422.262 240.844 424.538C241.866 426.814 243.492 428.736 245.528 430.077C247.564 431.417 249.926 432.119 252.332 432.1C254.739 432.081 257.09 431.341 259.106 429.968C261.123 428.596 262.72 426.648 263.709 424.355C264.698 422.063 265.037 419.523 264.686 417.035H264.697Z" fill="#10D574"/>
<path d="M496.414 527.278C491.974 527.278 487.635 525.903 483.944 523.326C480.252 520.749 477.375 517.087 475.676 512.802C473.978 508.517 473.533 503.802 474.399 499.253C475.265 494.704 477.403 490.526 480.542 487.246C483.681 483.966 487.681 481.733 492.035 480.828C496.389 479.923 500.902 480.388 505.003 482.163C509.105 483.938 512.611 486.943 515.077 490.8C517.543 494.656 518.86 499.19 518.86 503.828C518.853 510.045 516.486 516.006 512.278 520.402C508.07 524.798 502.365 527.271 496.414 527.278V527.278ZM496.414 481.995C492.281 481.995 488.24 483.275 484.804 485.674C481.367 488.073 478.688 491.483 477.107 495.473C475.525 499.462 475.111 503.852 475.917 508.087C476.724 512.323 478.714 516.213 481.637 519.266C484.559 522.32 488.283 524.399 492.337 525.241C496.391 526.084 500.593 525.652 504.411 523.999C508.23 522.347 511.494 519.548 513.79 515.958C516.086 512.367 517.312 508.146 517.312 503.828C517.305 498.039 515.102 492.49 511.184 488.397C507.266 484.304 501.954 482.001 496.414 481.995V481.995Z" fill="#3F3D56"/>
<path d="M506.099 513.224C505.277 513.225 504.474 512.971 503.791 512.494C503.107 512.018 502.574 511.34 502.26 510.548C501.945 509.755 501.862 508.882 502.022 508.04C502.181 507.198 502.576 506.425 503.157 505.818C503.738 505.21 504.477 504.796 505.283 504.628C506.089 504.46 506.924 504.546 507.683 504.874C508.443 505.202 509.092 505.757 509.549 506.471C510.005 507.184 510.25 508.023 510.25 508.881C510.25 510.032 509.813 511.136 509.035 511.95C508.257 512.765 507.201 513.223 506.099 513.224ZM496.414 513.224C495.313 513.223 494.258 512.765 493.48 511.952C492.702 511.139 492.264 510.037 492.263 508.887V498.769C492.264 497.619 492.702 496.518 493.48 495.705C494.259 494.893 495.314 494.437 496.414 494.437C497.514 494.437 498.569 494.893 499.347 495.705C500.126 496.518 500.564 497.619 500.565 498.769V508.887C500.564 510.037 500.126 511.139 499.348 511.952C498.57 512.765 497.514 513.223 496.414 513.224V513.224ZM486.731 513.224C485.63 513.223 484.574 512.765 483.796 511.951C483.017 511.138 482.579 510.035 482.578 508.884V504.841C482.578 503.69 483.015 502.587 483.794 501.773C484.573 500.959 485.63 500.502 486.731 500.502C487.833 500.502 488.89 500.959 489.669 501.773C490.448 502.587 490.885 503.69 490.885 504.841V508.884C490.884 510.035 490.446 511.138 489.667 511.951C488.889 512.765 487.833 513.223 486.731 513.224V513.224Z" fill="#10D574"/>
<path d="M211.789 609.037L218.63 608.226L218.892 580.27L208.794 581.467L211.789 609.037Z" fill="#A0616A"/>
<path d="M232.546 613.298L211.044 615.847L210.101 607.168L223.295 605.604C225.499 605.343 227.711 606.007 229.446 607.45C231.181 608.893 232.296 610.996 232.546 613.298V613.298L232.546 613.298Z" fill="#2F2E41"/>
<path d="M141.428 608.59L148.314 608.59L151.589 580.843L141.427 580.844L141.428 608.59Z" fill="#A0616A"/>
<path d="M161.593 615.269L139.953 615.27L139.953 606.535L153.232 606.534C155.449 606.534 157.576 607.454 159.144 609.092C160.712 610.731 161.593 612.952 161.593 615.269V615.269L161.593 615.269Z" fill="#2F2E41"/>
<path d="M190.83 484.509L194.761 497.87L216.103 546.119L221.719 591.886L208.802 592.473L200.939 550.226L173.981 519.715L150.392 599.514L139.721 598.341C139.721 598.341 148.708 495.071 161.063 484.509C161.063 484.509 181.282 474.535 190.83 484.509Z" fill="#2F2E41"/>
<path d="M173.391 426.863C181.009 426.863 187.185 420.411 187.185 412.451C187.185 404.492 181.009 398.04 173.391 398.04C165.772 398.04 159.596 404.492 159.596 412.451C159.596 420.411 165.772 426.863 173.391 426.863Z" fill="#A0616A"/>
<path d="M192.234 487.15C192.234 487.15 193.919 427.3 170.33 431.408C146.742 435.515 156.57 493.311 156.57 493.311C156.57 493.311 161.625 503.873 173.981 492.137C186.337 480.402 192.234 487.15 192.234 487.15Z" fill="#10D574"/>
<path d="M241.068 437.334C240.625 438.062 240.035 438.68 239.339 439.144C238.643 439.608 237.858 439.906 237.039 440.019C236.22 440.132 235.388 440.056 234.601 439.796C233.813 439.536 233.09 439.099 232.482 438.516L214.813 448.461L215.738 437.608L232.375 429.828C233.381 428.826 234.703 428.243 236.093 428.191C237.482 428.14 238.841 428.622 239.912 429.547C240.984 430.472 241.693 431.776 241.906 433.211C242.119 434.646 241.821 436.113 241.068 437.334L241.068 437.334Z" fill="#A0616A"/>
<path d="M173.259 438.715L201.939 443.78L227.641 431.104L231.543 439.821L203.407 458.544C203.407 458.544 173.619 460.658 166.732 452.451C164.15 449.373 163.855 446.572 164.494 444.273C165.055 442.389 166.255 440.784 167.869 439.76C169.484 438.737 171.4 438.365 173.259 438.715V438.715Z" fill="#10D574"/>
<path d="M171.75 427.594C171.816 427.532 171.867 427.455 171.899 427.369C171.932 427.283 171.945 427.191 171.937 427.099C171.929 427.007 171.901 426.918 171.854 426.839C171.808 426.76 171.745 426.694 171.669 426.645C170.445 425.853 169.447 424.73 168.78 423.396C168.114 422.061 167.804 420.563 167.883 419.06C167.962 417.557 168.427 416.104 169.23 414.854C170.032 413.604 171.142 412.602 172.442 411.954C176.498 409.934 181.993 411.506 184.991 407.624C185.601 406.793 186.032 405.835 186.255 404.815C186.479 403.795 186.489 402.736 186.285 401.711C185.638 398.045 182.999 395.322 180.045 393.456C176.415 391.163 172.244 389.979 168.003 390.036C163.762 390.094 159.621 391.392 156.05 393.782C152.479 396.172 149.62 399.559 147.797 403.56C145.974 407.561 145.26 412.015 145.735 416.418C146.117 419.947 147.159 423.904 145.151 426.769C143.383 429.29 140.046 429.763 137.116 430.39C130.829 431.734 124.764 434.834 120.498 439.841C116.232 444.849 113.956 451.875 115.243 458.443C116.529 465.01 121.689 470.782 128.031 471.8C133.194 472.629 138.524 470.338 142.315 466.585C146.106 462.831 148.502 457.763 150.013 452.54C151.807 446.34 152.515 439.66 155.754 434.138C158.923 428.734 165.753 424.86 171.106 427.675C171.208 427.731 171.325 427.753 171.44 427.738C171.555 427.724 171.663 427.674 171.75 427.594V427.594Z" fill="#2F2E41"/>
<path d="M571.496 534.266C572.242 533.878 572.898 533.324 573.418 532.642C573.937 531.961 574.307 531.169 574.501 530.321C574.696 529.474 574.71 528.593 574.543 527.739C574.376 526.886 574.032 526.081 573.535 525.381L586.826 448.536L574.424 448.366L565.194 524.355C564.124 525.305 563.425 526.632 563.23 528.084C563.034 529.537 563.355 531.014 564.131 532.235C564.908 533.457 566.087 534.338 567.444 534.713C568.801 535.087 570.243 534.928 571.496 534.266H571.496Z" fill="#FFB8B8"/>
<path d="M533.004 530.623L528.295 553.989L528.884 606.254H537.712L541.832 555.219L548.306 533.698L533.004 530.623Z" fill="#FFB8B8"/>
<path d="M562.18 532.376L557.472 555.742L558.06 608.007H566.889L571.008 556.972L577.482 535.451L562.18 532.376Z" fill="#FFB8B8"/>
<path d="M525.8 605.66L539.716 605.623L539.738 614.777L517.061 614.836C517.058 613.634 517.282 612.443 517.719 611.331C518.157 610.22 518.8 609.209 519.611 608.357C520.423 607.505 521.387 606.828 522.449 606.365C523.511 605.902 524.65 605.663 525.8 605.66V605.66Z" fill="#2F2E41"/>
<path d="M555.194 606.648L569.11 606.611L569.132 615.765L546.455 615.825C546.452 614.622 546.675 613.432 547.113 612.32C547.551 611.208 548.194 610.197 549.005 609.345C549.817 608.493 550.781 607.816 551.843 607.354C552.905 606.891 554.044 606.651 555.194 606.648V606.648Z" fill="#2F2E41"/>
<path d="M554.485 416.036C562.469 416.036 568.941 409.274 568.941 400.934C568.941 392.593 562.469 385.832 554.485 385.832C546.502 385.832 540.03 392.593 540.03 400.934C540.03 409.274 546.502 416.036 554.485 416.036Z" fill="#FFB8B8"/>
<path d="M586.431 438.287C582.033 431.078 568.224 413.979 547.677 423.793C546.058 424.576 544.707 425.857 543.805 427.465C542.904 429.073 542.495 430.931 542.634 432.789C543.629 446.5 544.883 481.434 534.181 502.339C534.181 502.339 565.374 512.177 582.441 502.953C582.441 502.953 576.556 461.756 582.441 453.763C584.404 451.208 585.993 448.364 587.157 445.323C587.566 444.171 587.713 442.937 587.587 441.716C587.461 440.495 587.065 439.321 586.431 438.287V438.287Z" fill="#3F3D56"/>
<path d="M580.676 437.776L586.452 440.29C586.836 440.458 587.167 440.736 587.405 441.093C587.643 441.45 587.779 441.871 587.796 442.305L588.327 455.607L575.379 454.378L580.676 437.776Z" fill="#3F3D56"/>
<path d="M536.535 501.109C536.535 501.109 523.587 526.319 525.941 549.684L544.186 552.759L557.134 520.17L554.191 553.374L573.025 553.989C573.025 553.989 585.384 506.028 581.264 501.724L536.535 501.109Z" fill="#2F2E41"/>
<path d="M518.145 503.359C518.969 503.227 519.756 502.908 520.449 502.425C521.143 501.941 521.727 501.304 522.159 500.56C522.592 499.815 522.863 498.98 522.953 498.114C523.043 497.248 522.951 496.372 522.682 495.547L548.948 443.817L537.186 439.702L515.038 491.912C513.742 492.476 512.688 493.516 512.078 494.837C511.467 496.158 511.342 497.666 511.725 499.077C512.108 500.488 512.973 501.704 514.156 502.493C515.34 503.282 516.759 503.59 518.145 503.359H518.145Z" fill="#FFB8B8"/>
<path d="M552.534 429.813L547.669 427.54C547.669 427.54 543.544 424.868 539.888 430.747C536.231 436.625 532.282 449.508 532.282 449.508L548.155 454.174L552.534 429.813Z" fill="#3F3D56"/>
<path d="M556.801 408.204C557.32 406.322 557.17 403.774 555.423 403.062C554.513 402.691 553.497 402.984 552.525 403.088C550.623 403.283 548.719 402.735 547.181 401.551C545.374 400.147 544.257 398.002 543.198 395.926L541.594 392.787C541.238 392.133 540.933 391.448 540.685 390.741C539.793 387.97 540.761 384.761 542.744 382.698C544.816 380.684 547.543 379.567 550.373 379.573C553.181 379.594 555.956 380.215 558.525 381.397C563.093 383.342 567.23 386.246 570.681 389.929C572.936 392.339 574.989 395.479 574.518 398.814C574.151 401.409 572.34 403.488 570.613 405.393L564.348 412.302C563.239 413.526 562.053 414.799 560.504 415.27C558.955 415.74 556.959 415.049 556.536 413.422C556.536 413.422 556.282 410.087 556.801 408.204Z" fill="#2F2E41"/>
<path d="M643.411 616H89.5885C89.4325 616 89.2828 615.935 89.1724 615.82C89.062 615.705 89 615.548 89 615.385C89 615.222 89.062 615.066 89.1724 614.95C89.2828 614.835 89.4325 614.77 89.5885 614.77H643.411C643.568 614.77 643.717 614.835 643.828 614.95C643.938 615.066 644 615.222 644 615.385C644 615.548 643.938 615.705 643.828 615.82C643.717 615.935 643.568 616 643.411 616Z" fill="#3F3D56"/>
<path d="M462.16 427.583H445.68C445.212 427.583 444.763 427.388 444.432 427.042C444.101 426.696 443.915 426.227 443.915 425.738C443.915 425.249 444.101 424.78 444.432 424.434C444.763 424.088 445.212 423.893 445.68 423.893H462.16C462.628 423.893 463.077 424.088 463.408 424.434C463.739 424.78 463.925 425.249 463.925 425.738C463.925 426.227 463.739 426.696 463.408 427.042C463.077 427.388 462.628 427.583 462.16 427.583V427.583Z" fill="#10D574"/>
<path d="M462.16 419.589H445.68C445.212 419.589 444.763 419.395 444.432 419.049C444.101 418.703 443.915 418.234 443.915 417.744C443.915 417.255 444.101 416.786 444.432 416.44C444.763 416.094 445.212 415.9 445.68 415.9H462.16C462.628 415.9 463.077 416.094 463.408 416.44C463.739 416.786 463.925 417.255 463.925 417.744C463.925 418.234 463.739 418.703 463.408 419.049C463.077 419.395 462.628 419.589 462.16 419.589V419.589Z" fill="#10D574"/>
<path d="M462.16 411.596H445.68C445.212 411.596 444.763 411.401 444.432 411.055C444.101 410.709 443.915 410.24 443.915 409.751C443.915 409.262 444.101 408.793 444.432 408.447C444.763 408.101 445.212 407.906 445.68 407.906H462.16C462.628 407.906 463.077 408.101 463.408 408.447C463.739 408.793 463.925 409.262 463.925 409.751C463.925 410.24 463.739 410.709 463.408 411.055C463.077 411.401 462.628 411.596 462.16 411.596V411.596Z" fill="#10D574"/>
<defs>
<linearGradient id="paint0_linear" x1="179" y1="-1.73768e-06" x2="683.5" y2="735.5" gradientUnits="userSpaceOnUse">
<stop stop-color="#50E3C2"/>
<stop offset="1" stop-color="#10D574"/>
</linearGradient>
</defs>
</svg>
